<svg width="106" height="25" viewBox="0 0 106 25" fill="none" xmlns="http://www.w3.org/2000/svg">
<path d="M11.44 16.06C10.888 16.06 10.392 15.936 9.952 15.688C9.512 15.432 9.164 15.064 8.908 14.584C8.652 14.104 8.524 13.524 8.524 12.844C8.524 12.156 8.652 11.576 8.908 11.104C9.172 10.624 9.524 10.26 9.964 10.012C10.404 9.764 10.896 9.64 11.44 9.64C12.04 9.64 12.576 9.776 13.048 10.048C13.528 10.312 13.904 10.684 14.176 11.164C14.448 11.644 14.584 12.204 14.584 12.844C14.584 13.476 14.448 14.036 14.176 14.524C13.904 15.004 13.528 15.38 13.048 15.652C12.576 15.924 12.04 16.06 11.44 16.06ZM8.188 16V7.096H9.04V11.56L8.92 12.832L9.004 14.104V16H8.188ZM11.38 15.304C11.828 15.304 12.228 15.204 12.58 15.004C12.932 14.796 13.212 14.508 13.42 14.14C13.628 13.764 13.732 13.332 13.732 12.844C13.732 12.348 13.628 11.916 13.42 11.548C13.212 11.18 12.932 10.896 12.58 10.696C12.228 10.488 11.828 10.384 11.38 10.384C10.932 10.384 10.528 10.488 10.168 10.696C9.816 10.896 9.536 11.18 9.328 11.548C9.128 11.916 9.028 12.348 9.028 12.844C9.028 13.332 9.128 13.764 9.328 14.14C9.536 14.508 9.816 14.796 10.168 15.004C10.528 15.204 10.932 15.304 11.38 15.304ZM16.193 18.388C15.897 18.388 15.613 18.34 15.341 18.244C15.077 18.148 14.849 18.004 14.657 17.812L15.053 17.176C15.213 17.328 15.385 17.444 15.569 17.524C15.761 17.612 15.973 17.656 16.205 17.656C16.485 17.656 16.725 17.576 16.925 17.416C17.133 17.264 17.329 16.992 17.513 16.6L17.921 15.676L18.017 15.544L20.609 9.7H21.449L18.293 16.756C18.117 17.164 17.921 17.488 17.705 17.728C17.497 17.968 17.269 18.136 17.021 18.232C16.773 18.336 16.497 18.388 16.193 18.388ZM17.873 16.18L14.969 9.7H15.857L18.425 15.484L17.873 16.18Z" fill="#1C323F"/>
<path d="M1 5.5V4L1 11.5L1 19" stroke="#1C323F" stroke-width="0.5"/>
<path d="M31.36 19.024H29.2V3.568H31.36V19.024ZM40.816 3.616C39.016 5.08 37.312 6.664 35.344 8.536L33.808 10L40.192 19.024H37.336L32.032 11.104L35.08 8.224C37.36 6.064 38.824 4.696 40 3.568H40.816V3.616ZM51.3385 17.008H51.6265C51.6265 17.008 51.1945 18.304 50.3305 18.832C50.3305 18.856 50.3305 18.856 50.3305 18.856H50.3065C50.1145 18.976 49.8985 19.072 49.6345 19.072C49.6105 19.072 49.5865 19.072 49.5625 19.072C49.4905 19.072 49.4425 19.072 49.3945 19.072C48.6265 19 48.3865 18.4 48.3385 17.992C48.3385 17.848 48.3145 17.632 48.3145 17.464C48.3145 17.44 48.2905 17.416 48.2905 17.392C48.2905 17.368 48.2905 17.368 48.2905 17.344C48.2905 17.32 48.2905 17.32 48.2905 17.296V14.92C48.1705 15.376 48.0265 15.856 47.8105 16.312C46.9465 18.208 45.6505 19.168 43.9465 19.192C43.9225 19.216 43.8985 19.216 43.8985 19.216C43.0105 19.216 42.2185 18.928 41.6905 18.4C41.2105 17.92 40.9705 17.296 40.9705 16.624C40.9705 14.92 42.7705 13.456 46.6345 11.944L48.4825 11.2C48.3625 8.248 47.5225 7.672 46.1065 7.672C45.5305 7.672 45.0505 7.816 44.6425 8.128C44.6425 8.128 44.4505 8.272 44.3305 8.776C44.1385 9.664 43.0105 9.952 42.4105 9.28L42.0505 8.872C42.9385 8.32 44.8585 7.336 46.4665 7.336C48.2185 7.336 50.3305 8.056 50.3305 11.512V17.296C50.3305 17.344 50.3305 17.416 50.3305 17.464C50.4745 18.568 51.3385 17.008 51.3385 17.008ZM47.9305 15.064C48.3625 13.648 48.4825 12.088 48.5065 11.536L46.7305 12.28C43.3945 13.696 42.6505 14.344 42.6505 15.976C42.6505 17.152 43.7065 18.088 45.0505 18.088C46.3465 18.088 47.3065 17.08 47.9305 15.064ZM71.7771 17.008H72.0891C72.0891 17.008 71.6571 18.304 70.7931 18.832C70.7691 18.856 70.7691 18.856 70.7691 18.856C70.7451 18.856 70.7451 18.856 70.7451 18.856C70.5771 18.976 70.3851 19.048 70.1691 19.072C70.1451 19.072 70.1211 19.072 70.0731 19.072C70.0491 19.072 70.0251 19.072 70.0011 19.072C69.9291 19.072 69.8811 19.072 69.8331 19.072C69.8091 19.072 69.8091 19.072 69.8091 19.072C69.6171 19.048 69.4491 19 69.3291 18.928C68.9931 18.712 68.8491 18.376 68.8011 18.088C68.8011 18.064 68.7771 18.064 68.7771 18.064C68.7771 18.04 68.7771 18.016 68.7771 17.992C68.7531 17.872 68.7531 17.752 68.7531 17.68V11.512C68.7531 10.648 68.7531 8.104 66.2811 8.104C65.1531 8.104 64.1691 8.8 63.0171 10C63.1371 10.456 63.1851 10.96 63.1851 11.56V18.856H61.1691V11.512C61.1691 10.648 61.1451 8.104 58.6971 8.104C57.5931 8.104 56.6811 8.752 55.6251 9.784V18.856H53.6091V9.352C53.6091 9.352 53.6091 9.328 53.6091 9.304C53.6091 9.256 53.6091 9.208 53.6091 9.16C53.4651 8.056 52.6011 9.616 52.6011 9.616H52.3131C52.3131 9.616 52.7211 8.32 53.6091 7.768C53.6091 7.768 53.6091 7.768 53.6331 7.768C53.8251 7.648 54.0411 7.552 54.3051 7.552C54.3291 7.552 54.3531 7.552 54.3771 7.552C54.4491 7.552 54.4971 7.552 54.5451 7.552C54.7611 7.576 54.9291 7.624 55.0491 7.696H55.0731C55.4091 7.912 55.5531 8.248 55.6011 8.536V8.56C55.6251 8.68 55.6251 8.8 55.6251 8.944V9.4C56.7771 8.248 57.9051 7.552 59.6091 7.552C61.2891 7.552 62.3931 8.224 62.9211 9.616C64.1691 8.344 65.3451 7.552 67.1691 7.552C69.4971 7.552 70.7451 8.824 70.7451 11.56V17.104C70.7451 17.176 70.7451 17.248 70.7451 17.32C70.7691 17.368 70.7691 17.416 70.7691 17.464C70.9131 18.568 71.7771 17.008 71.7771 17.008ZM83.1901 17.008H83.4781C83.4781 17.008 83.0461 18.304 82.1821 18.832C82.1821 18.856 82.1821 18.856 82.1821 18.856H82.1581C81.9661 18.976 81.7501 19.072 81.4861 19.072C81.4621 19.072 81.4381 19.072 81.4141 19.072C81.3421 19.072 81.2941 19.072 81.2461 19.072C80.4781 19 80.2381 18.4 80.1901 17.992C80.1901 17.848 80.1661 17.632 80.1661 17.464C80.1661 17.44 80.1421 17.416 80.1421 17.392C80.1421 17.368 80.1421 17.368 80.1421 17.344C80.1421 17.32 80.1421 17.32 80.1421 17.296V14.92C80.0221 15.376 79.8781 15.856 79.6621 16.312C78.7981 18.208 77.5021 19.168 75.7981 19.192C75.7741 19.216 75.7501 19.216 75.7501 19.216C74.8621 19.216 74.0701 18.928 73.5421 18.4C73.0621 17.92 72.8221 17.296 72.8221 16.624C72.8221 14.92 74.6221 13.456 78.4861 11.944L80.3341 11.2C80.2141 8.248 79.3741 7.672 77.9581 7.672C77.3821 7.672 76.9021 7.816 76.4941 8.128C76.4941 8.128 76.3021 8.272 76.1821 8.776C75.9901 9.664 74.8621 9.952 74.2621 9.28L73.9021 8.872C74.7901 8.32 76.7101 7.336 78.3181 7.336C80.0701 7.336 82.1821 8.056 82.1821 11.512V17.296C82.1821 17.344 82.1821 17.416 82.1821 17.464C82.3261 18.568 83.1901 17.008 83.1901 17.008ZM79.7821 15.064C80.2141 13.648 80.3341 12.088 80.3581 11.536L78.5821 12.28C75.2461 13.696 74.5021 14.344 74.5021 15.976C74.5021 17.152 75.5581 18.088 76.9021 18.088C78.1981 18.088 79.1581 17.08 79.7821 15.064ZM93.7079 7.552H94.2599C93.3479 9.376 92.6279 11.056 91.3799 13.936L90.8999 15.04L88.1639 21.664C87.1319 24.088 85.4999 24.832 83.6039 24.832L83.6279 24.376C83.6759 23.56 84.4199 22.96 85.2119 23.08C87.1079 23.368 87.7559 21.64 87.7559 21.64L88.4519 19.936L88.8839 18.904L84.8759 9.592L84.8519 9.544L84.7799 9.4L84.7319 9.256L84.6839 9.136L84.6599 9.088C84.2039 8.128 83.5799 9.616 83.5799 9.616H83.2919C83.2919 9.616 83.6039 8.68 84.2279 8.08C84.3239 7.96 84.4439 7.864 84.5639 7.792C84.5879 7.792 84.5879 7.792 84.5879 7.792C84.8039 7.648 85.0199 7.576 85.2599 7.552C85.2839 7.552 85.3319 7.552 85.3559 7.552C85.4039 7.552 85.4519 7.552 85.5239 7.552C86.0039 7.6 86.2679 7.864 86.4119 8.176H86.4359L89.9159 16.336L90.5159 14.968L90.6119 14.752L91.0199 13.792C91.1399 13.552 91.2359 13.312 91.3319 13.072V13.024L93.7079 7.552ZM104.542 17.008H104.83C104.83 17.008 104.398 18.304 103.534 18.832C103.534 18.856 103.534 18.856 103.534 18.856H103.51C103.318 18.976 103.102 19.072 102.838 19.072C102.814 19.072 102.79 19.072 102.766 19.072C102.694 19.072 102.646 19.072 102.598 19.072C101.83 19 101.59 18.4 101.542 17.992C101.542 17.848 101.518 17.632 101.518 17.464C101.518 17.44 101.494 17.416 101.494 17.392C101.494 17.368 101.494 17.368 101.494 17.344C101.494 17.32 101.494 17.32 101.494 17.296V14.92C101.374 15.376 101.23 15.856 101.014 16.312C100.15 18.208 98.8536 19.168 97.1496 19.192C97.1256 19.216 97.1016 19.216 97.1016 19.216C96.2136 19.216 95.4216 18.928 94.8936 18.4C94.4136 17.92 94.1736 17.296 94.1736 16.624C94.1736 14.92 95.9736 13.456 99.8376 11.944L101.686 11.2C101.566 8.248 100.726 7.672 99.3096 7.672C98.7336 7.672 98.2536 7.816 97.8456 8.128C97.8456 8.128 97.6536 8.272 97.5336 8.776C97.3416 9.664 96.2136 9.952 95.6136 9.28L95.2536 8.872C96.1416 8.32 98.0616 7.336 99.6696 7.336C101.422 7.336 103.534 8.056 103.534 11.512V17.296C103.534 17.344 103.534 17.416 103.534 17.464C103.678 18.568 104.542 17.008 104.542 17.008ZM101.134 15.064C101.566 13.648 101.686 12.088 101.71 11.536L99.9336 12.28C96.5976 13.696 95.8536 14.344 95.8536 15.976C95.8536 17.152 96.9096 18.088 98.2536 18.088C99.5496 18.088 100.51 17.08 101.134 15.064Z" fill="#1C323F"/>
</svg>
