<svg width="162" height="38" viewBox="0 0 162 38" fill="none" xmlns="http://www.w3.org/2000/svg">
<path d="M5.59013 17.1344C4.65414 17.1299 3.75487 16.9756 2.89233 16.6714C2.04184 16.3553 1.38375 15.9561 0.91807 15.4739L1.44501 14.4504C1.88692 14.8846 2.47915 15.2534 3.2217 15.557C3.9763 15.8486 4.7676 15.9964 5.59559 16.0004C6.38758 16.0042 7.03003 15.9113 7.52295 15.7217C8.02793 15.5201 8.39523 15.2519 8.62484 14.917C8.86646 14.5822 8.98825 14.2108 8.99021 13.8028C8.99258 13.3108 8.85049 12.9141 8.56394 12.6127C8.28939 12.3114 7.92452 12.0756 7.46933 11.9054C7.01421 11.7232 6.51096 11.5648 5.95961 11.4301C5.40825 11.2955 4.85692 11.1548 4.30562 11.0082C3.75438 10.8495 3.24536 10.643 2.77858 10.3888C2.3238 10.1346 1.9534 9.80282 1.66737 9.39343C1.39339 8.97211 1.25802 8.42545 1.26126 7.75346C1.26427 7.12947 1.42901 6.56025 1.75549 6.04582C2.09403 5.51944 2.60605 5.1019 3.29154 4.7932C3.97709 4.4725 4.85386 4.31472 5.92185 4.31987C6.62984 4.32328 7.33134 4.42866 8.02635 4.63601C8.72142 4.83136 9.32011 5.10424 9.82243 5.45467L9.36732 6.51449C8.82906 6.15189 8.25434 5.88512 7.64316 5.71417C7.04397 5.54329 6.46238 5.45648 5.89839 5.45377C5.1424 5.45013 4.51791 5.54912 4.02494 5.75075C3.53196 5.95237 3.16464 6.22661 2.92296 6.57345C2.69335 6.90835 2.5775 7.29179 2.57542 7.72379C2.57305 8.21578 2.70914 8.61244 2.98369 8.91377C3.27024 9.21515 3.64111 9.45094 4.0963 9.62113C4.56348 9.79139 5.07275 9.94384 5.62411 10.0785C6.17547 10.2132 6.72077 10.3598 7.26001 10.5184C7.81125 10.677 8.31427 10.8835 8.76905 11.1377C9.23589 11.3799 9.60632 11.7057 9.88035 12.115C10.1664 12.5244 10.3078 13.0591 10.3046 13.7191C10.3017 14.3311 10.1309 14.9003 9.7924 15.4266C9.45392 15.941 8.9359 16.3585 8.23835 16.6792C7.55286 16.9879 6.67011 17.1396 5.59013 17.1344ZM13.3708 17.0639L13.4315 4.46404L14.7634 4.47045L14.7028 17.0703L13.3708 17.0639ZM16.9664 17.0812L22.787 4.5091L24.101 4.51543L29.8002 17.143L28.3962 17.1363L23.1613 5.28491L23.7013 5.28751L18.3524 17.0879L16.9664 17.0812ZM19.2506 13.7262L19.6518 12.6481L26.9777 12.6834L27.3685 13.7653L19.2506 13.7262ZM32.0645 17.1539L32.1252 4.55408L36.8412 4.57679C37.9092 4.58194 38.8263 4.76036 39.5926 5.11205C40.359 5.45175 40.9446 5.94657 41.3495 6.59653C41.7664 7.23455 41.9727 8.00955 41.9683 8.92154C41.964 9.80953 41.7503 10.5765 41.3272 11.2225C40.9162 11.8565 40.3258 12.3457 39.5561 12.69C38.7865 13.0223 37.8677 13.1858 36.7997 13.1807L32.8218 13.1615L33.4187 12.5524L33.3965 17.1603L32.0645 17.1539ZM40.6684 17.1954L37.4505 12.6078L38.8905 12.6148L42.1264 17.2024L40.6684 17.1954ZM33.4182 12.6604L32.8272 12.0275L36.7692 12.0465C38.0292 12.0526 38.9845 11.7812 39.6352 11.2323C40.2978 10.6835 40.6315 9.91111 40.6363 8.91512C40.6412 7.90713 40.3149 7.12555 39.6576 6.57038C39.0123 6.01527 38.0596 5.73467 36.7996 5.72861L32.8577 5.70962L33.4547 5.08249L33.4182 12.6604ZM50.7776 17.3521C49.8176 17.3474 48.9304 17.1872 48.1159 16.8712C47.3135 16.5434 46.6136 16.09 46.0164 15.5111C45.4312 14.9323 44.9725 14.2521 44.6402 13.4705C44.32 12.6889 44.1621 11.8361 44.1666 10.9121C44.171 9.98816 44.3371 9.13695 44.6649 8.35852C45.0046 7.58015 45.4759 6.90441 46.0786 6.33131C46.6814 5.7582 47.3855 5.31759 48.191 5.00946C49.0086 4.6894 49.8974 4.53168 50.8573 4.5363C51.8173 4.54092 52.6926 4.69514 53.4831 4.99895C54.2857 5.30282 54.9675 5.76211 55.5285 6.37682L54.6965 7.21882C54.171 6.68829 53.5908 6.30749 52.956 6.07643C52.3211 5.84537 51.6376 5.72807 50.9056 5.72455C50.1256 5.72079 49.405 5.84932 48.7437 6.11014C48.0945 6.35902 47.5228 6.72227 47.0285 7.19989C46.5462 7.66557 46.1656 8.21575 45.8865 8.85041C45.6195 9.47313 45.4842 10.1625 45.4805 10.9185C45.477 11.6625 45.6056 12.3531 45.8666 12.9904C46.1395 13.6277 46.5148 14.1875 46.9925 14.6698C47.4822 15.1402 48.0505 15.5089 48.6972 15.776C49.356 16.0312 50.0693 16.1606 50.8373 16.1643C51.5573 16.1678 52.2358 16.0631 52.8729 15.8501C53.5219 15.6373 54.1177 15.2741 54.6601 14.7607L55.4113 15.7724C54.8087 16.2975 54.1048 16.6961 53.2995 16.9682C52.4942 17.2283 51.6536 17.3563 50.7776 17.3521ZM54.1341 15.6042L54.1564 10.9603L55.4344 10.9664L55.4113 15.7724L54.1341 15.6042ZM57.3379 17.2757L63.1586 4.70355L64.4725 4.70988L70.1718 17.3375L68.7678 17.3307L63.5328 5.47936L64.0728 5.48196L58.7239 17.2823L57.3379 17.2757ZM59.6221 13.9206L60.0233 12.8425L67.3492 12.8778L67.74 13.9597L59.6221 13.9206ZM77.7677 17.4821C76.8198 17.4775 75.9385 17.3173 75.124 17.0013C74.3216 16.6735 73.6218 16.2201 73.0246 15.6412C72.4394 15.0504 71.9807 14.3702 71.6484 13.6005C71.3281 12.819 71.1702 11.9662 71.1747 11.0422C71.1791 10.1182 71.3452 9.27304 71.6729 8.50661C72.0127 7.72823 72.4779 7.05247 73.0687 6.4793C73.6715 5.8942 74.3757 5.44759 75.1812 5.13946C75.9867 4.81934 76.8695 4.66159 77.8295 4.66621C78.7775 4.67078 79.6527 4.837 80.4551 5.16487C81.2576 5.48073 81.9514 5.92808 82.5367 6.50691C83.1339 7.08579 83.5926 7.76601 83.9128 8.54756C84.2451 9.32917 84.409 10.182 84.4045 11.106C84.4001 12.0299 84.228 12.8811 83.8882 13.6595C83.5605 14.4379 83.0952 15.1137 82.4924 15.6868C81.9017 16.26 81.2035 16.7066 80.398 17.0267C79.5925 17.3349 78.7157 17.4866 77.7677 17.4821ZM77.7735 16.2941C78.5295 16.2977 79.2261 16.1751 79.8633 15.9261C80.5125 15.6653 81.0723 15.302 81.5425 14.8362C82.0248 14.3585 82.3995 13.8083 82.6665 13.1856C82.9336 12.5509 83.0689 11.8555 83.0725 11.0995C83.0762 10.3436 82.9475 9.65292 82.6865 9.02766C82.4256 8.39039 82.0562 7.83661 81.5785 7.3663C81.1128 6.88405 80.5566 6.51537 79.9098 6.26025C79.2751 5.99319 78.5797 5.85784 77.8237 5.8542C77.0678 5.85056 76.3651 5.97918 75.7159 6.24005C75.0667 6.48893 74.5009 6.85221 74.0186 7.32989C73.5483 7.79563 73.1737 8.34583 72.8946 8.98049C72.6276 9.60322 72.4923 10.2926 72.4887 11.0486C72.4851 11.7926 72.6138 12.4832 72.8747 13.1204C73.1476 13.7578 73.5169 14.3176 73.9826 14.7998C74.4604 15.2701 75.0226 15.6388 75.6693 15.9059C76.3161 16.1611 77.0175 16.2904 77.7735 16.2941ZM95.9041 17.5694C94.9681 17.5649 94.0688 17.4106 93.2063 17.1064C92.3558 16.7903 91.6977 16.3911 91.232 15.9089L91.759 14.8854C92.2009 15.3196 92.7931 15.6884 93.5356 15.992C94.2903 16.2836 95.0816 16.4314 95.9095 16.4354C96.7015 16.4392 97.344 16.3463 97.8369 16.1567C98.3419 15.9551 98.7092 15.6869 98.9388 15.352C99.1804 15.0172 99.3022 14.6458 99.3042 14.2378C99.3065 13.7458 99.1644 13.3491 98.8779 13.0477C98.6033 12.7464 98.2385 12.5106 97.7833 12.3404C97.3282 12.1582 96.8249 11.9998 96.2736 11.8651C95.7222 11.7305 95.1709 11.5898 94.6196 11.4432C94.0683 11.2845 93.5593 11.0781 93.0925 10.8238C92.6378 10.5696 92.2673 10.2378 91.9813 9.82844C91.7073 9.40711 91.572 8.86045 91.5752 8.18846C91.5782 7.56447 91.743 6.99526 92.0694 6.48082C92.408 5.95445 92.92 5.53691 93.6055 5.22821C94.291 4.9075 95.1678 4.74973 96.2358 4.75487C96.9438 4.75828 97.6453 4.86366 98.3403 5.07101C99.0354 5.26636 99.6341 5.53925 100.136 5.88967L99.6813 6.94949C99.143 6.58689 98.5683 6.32012 97.9571 6.14918C97.3579 5.97829 96.7763 5.89149 96.2123 5.88877C95.4564 5.88513 94.8319 5.98412 94.3389 6.18575C93.8459 6.38738 93.4786 6.66161 93.2369 7.00845C93.0073 7.34335 92.8915 7.7268 92.8894 8.15879C92.887 8.65078 93.0231 9.04744 93.2976 9.34877C93.5842 9.65015 93.9551 9.88594 94.4102 10.0561C94.8774 10.2264 95.3867 10.3788 95.9381 10.5135C96.4894 10.6482 97.0347 10.7948 97.574 10.9534C98.1252 11.112 98.6282 11.3185 99.083 11.5727C99.5498 11.8149 99.9203 12.1407 100.194 12.55C100.48 12.9594 100.622 13.4941 100.619 14.1541C100.616 14.7661 100.445 15.3353 100.106 15.8616C99.7679 16.376 99.2499 16.7935 98.5523 17.1142C97.8668 17.4229 96.9841 17.5746 95.9041 17.5694ZM108.76 17.6313C107.152 17.6236 105.888 17.1555 104.969 16.2271C104.049 15.2986 103.594 13.9284 103.603 12.1164L103.637 4.89852L104.969 4.90494L104.935 12.0689C104.928 13.5568 105.258 14.6564 105.927 15.3677C106.596 16.0789 107.542 16.4375 108.766 16.4434C110.002 16.4493 110.958 16.0999 111.633 15.3952C112.308 14.6904 112.65 13.594 112.657 12.106L112.691 4.94213L113.987 4.94837L113.953 12.1663C113.944 13.9783 113.475 15.344 112.547 16.2636C111.63 17.1832 110.368 17.6391 108.76 17.6313ZM118.12 17.5684L118.181 4.96857L122.897 4.99129C123.965 4.99643 124.882 5.17485 125.649 5.52655C126.415 5.86624 127.001 6.36107 127.405 7.01102C127.822 7.64904 128.029 8.42404 128.024 9.33603C128.02 10.224 127.806 10.991 127.383 11.637C126.972 12.271 126.382 12.7602 125.612 13.1045C124.842 13.4368 123.924 13.6003 122.856 13.5952L118.878 13.576L119.475 12.9669L119.452 17.5748L118.12 17.5684ZM126.724 17.6099L123.506 13.0223L124.946 13.0292L128.182 17.6169L126.724 17.6099ZM119.474 13.0749L118.883 12.442L122.825 12.461C124.085 12.4671 125.04 12.1957 125.691 11.6468C126.354 11.098 126.687 10.3256 126.692 9.32962C126.697 8.32163 126.371 7.54005 125.713 6.98487C125.068 6.42976 124.115 6.14917 122.856 6.1431L118.914 6.12411L119.511 5.49698L119.474 13.0749ZM132.527 11.1397L139.187 11.1718L139.182 12.3238L132.522 12.2917L132.527 11.1397ZM132.64 17.6384L131.308 17.6319L131.369 5.03209L140.009 5.0737L140.003 6.22569L132.695 6.19049L132.64 17.6384Z" fill="#1C3340"/>
<path d="M10.33 33.045C9.916 33.045 9.544 32.952 9.214 32.766C8.884 32.574 8.623 32.298 8.431 31.938C8.239 31.578 8.143 31.143 8.143 30.633C8.143 30.117 8.239 29.682 8.431 29.328C8.629 28.968 8.893 28.695 9.223 28.509C9.553 28.323 9.922 28.23 10.33 28.23C10.78 28.23 11.182 28.332 11.536 28.536C11.896 28.734 12.178 29.013 12.382 29.373C12.586 29.733 12.688 30.153 12.688 30.633C12.688 31.107 12.586 31.527 12.382 31.893C12.178 32.253 11.896 32.535 11.536 32.739C11.182 32.943 10.78 33.045 10.33 33.045ZM7.891 33V26.322H8.53V29.67L8.44 30.624L8.503 31.578V33H7.891ZM10.285 32.478C10.621 32.478 10.921 32.403 11.185 32.253C11.449 32.097 11.659 31.881 11.815 31.605C11.971 31.323 12.049 30.999 12.049 30.633C12.049 30.261 11.971 29.937 11.815 29.661C11.659 29.385 11.449 29.172 11.185 29.022C10.921 28.866 10.621 28.788 10.285 28.788C9.949 28.788 9.646 28.866 9.376 29.022C9.112 29.172 8.902 29.385 8.746 29.661C8.596 29.937 8.521 30.261 8.521 30.633C8.521 30.999 8.596 31.323 8.746 31.605C8.902 31.881 9.112 32.097 9.376 32.253C9.646 32.403 9.949 32.478 10.285 32.478ZM13.8948 34.791C13.6728 34.791 13.4598 34.755 13.2558 34.683C13.0578 34.611 12.8868 34.503 12.7428 34.359L13.0398 33.882C13.1598 33.996 13.2888 34.083 13.4268 34.143C13.5708 34.209 13.7298 34.242 13.9038 34.242C14.1138 34.242 14.2938 34.182 14.4438 34.062C14.5998 33.948 14.7468 33.744 14.8848 33.45L15.1908 32.757L15.2628 32.658L17.2068 28.275H17.8368L15.4698 33.567C15.3378 33.873 15.1908 34.116 15.0288 34.296C14.8728 34.476 14.7018 34.602 14.5158 34.674C14.3298 34.752 14.1228 34.791 13.8948 34.791ZM15.1548 33.135L12.9768 28.275H13.6428L15.5688 32.613L15.1548 33.135Z" fill="#1C3340"/>
<path d="M1 26V25L1 30L1 35" stroke="#1C3340" stroke-width="0.5"/>
<path d="M23.1 34.015H21.75V24.355H23.1V34.015ZM29.01 24.385C27.885 25.3 26.82 26.29 25.59 27.46L24.63 28.375L28.62 34.015H26.835L23.52 29.065L25.425 27.265C26.85 25.915 27.765 25.06 28.5 24.355H29.01V24.385ZM35.5866 32.755H35.7666C35.7666 32.755 35.4966 33.565 34.9566 33.895C34.9566 33.91 34.9566 33.91 34.9566 33.91H34.9416C34.8216 33.985 34.6866 34.045 34.5216 34.045C34.5066 34.045 34.4916 34.045 34.4766 34.045C34.4316 34.045 34.4016 34.045 34.3716 34.045C33.8916 34 33.7416 33.625 33.7116 33.37C33.7116 33.28 33.6966 33.145 33.6966 33.04C33.6966 33.025 33.6816 33.01 33.6816 32.995C33.6816 32.98 33.6816 32.98 33.6816 32.965C33.6816 32.95 33.6816 32.95 33.6816 32.935V31.45C33.6066 31.735 33.5166 32.035 33.3816 32.32C32.8416 33.505 32.0316 34.105 30.9666 34.12C30.9516 34.135 30.9366 34.135 30.9366 34.135C30.3816 34.135 29.8866 33.955 29.5566 33.625C29.2566 33.325 29.1066 32.935 29.1066 32.515C29.1066 31.45 30.2316 30.535 32.6466 29.59L33.8016 29.125C33.7266 27.28 33.2016 26.92 32.3166 26.92C31.9566 26.92 31.6566 27.01 31.4016 27.205C31.4016 27.205 31.2816 27.295 31.2066 27.61C31.0866 28.165 30.3816 28.345 30.0066 27.925L29.7816 27.67C30.3366 27.325 31.5366 26.71 32.5416 26.71C33.6366 26.71 34.9566 27.16 34.9566 29.32V32.935C34.9566 32.965 34.9566 33.01 34.9566 33.04C35.0466 33.73 35.5866 32.755 35.5866 32.755ZM33.4566 31.54C33.7266 30.655 33.8016 29.68 33.8166 29.335L32.7066 29.8C30.6216 30.685 30.1566 31.09 30.1566 32.11C30.1566 32.845 30.8166 33.43 31.6566 33.43C32.4666 33.43 33.0666 32.8 33.4566 31.54ZM48.3607 32.755H48.5557C48.5557 32.755 48.2857 33.565 47.7457 33.895C47.7307 33.91 47.7307 33.91 47.7307 33.91C47.7157 33.91 47.7157 33.91 47.7157 33.91C47.6107 33.985 47.4907 34.03 47.3557 34.045C47.3407 34.045 47.3257 34.045 47.2957 34.045C47.2807 34.045 47.2657 34.045 47.2507 34.045C47.2057 34.045 47.1757 34.045 47.1457 34.045C47.1307 34.045 47.1307 34.045 47.1307 34.045C47.0107 34.03 46.9057 34 46.8307 33.955C46.6207 33.82 46.5307 33.61 46.5007 33.43C46.5007 33.415 46.4857 33.415 46.4857 33.415C46.4857 33.4 46.4857 33.385 46.4857 33.37C46.4707 33.295 46.4707 33.22 46.4707 33.175V29.32C46.4707 28.78 46.4707 27.19 44.9257 27.19C44.2207 27.19 43.6057 27.625 42.8857 28.375C42.9607 28.66 42.9907 28.975 42.9907 29.35V33.91H41.7307V29.32C41.7307 28.78 41.7157 27.19 40.1857 27.19C39.4957 27.19 38.9257 27.595 38.2657 28.24V33.91H37.0057V27.97C37.0057 27.97 37.0057 27.955 37.0057 27.94C37.0057 27.91 37.0057 27.88 37.0057 27.85C36.9157 27.16 36.3757 28.135 36.3757 28.135H36.1957C36.1957 28.135 36.4507 27.325 37.0057 26.98C37.0057 26.98 37.0057 26.98 37.0207 26.98C37.1407 26.905 37.2757 26.845 37.4407 26.845C37.4557 26.845 37.4707 26.845 37.4857 26.845C37.5307 26.845 37.5607 26.845 37.5907 26.845C37.7257 26.86 37.8307 26.89 37.9057 26.935H37.9207C38.1307 27.07 38.2207 27.28 38.2507 27.46V27.475C38.2657 27.55 38.2657 27.625 38.2657 27.715V28C38.9857 27.28 39.6907 26.845 40.7557 26.845C41.8057 26.845 42.4957 27.265 42.8257 28.135C43.6057 27.34 44.3407 26.845 45.4807 26.845C46.9357 26.845 47.7157 27.64 47.7157 29.35V32.815C47.7157 32.86 47.7157 32.905 47.7157 32.95C47.7307 32.98 47.7307 33.01 47.7307 33.04C47.8207 33.73 48.3607 32.755 48.3607 32.755ZM55.4938 32.755H55.6738C55.6738 32.755 55.4038 33.565 54.8638 33.895C54.8638 33.91 54.8638 33.91 54.8638 33.91H54.8488C54.7288 33.985 54.5938 34.045 54.4288 34.045C54.4138 34.045 54.3988 34.045 54.3838 34.045C54.3388 34.045 54.3088 34.045 54.2788 34.045C53.7988 34 53.6488 33.625 53.6188 33.37C53.6188 33.28 53.6038 33.145 53.6038 33.04C53.6038 33.025 53.5888 33.01 53.5888 32.995C53.5888 32.98 53.5888 32.98 53.5888 32.965C53.5888 32.95 53.5888 32.95 53.5888 32.935V31.45C53.5138 31.735 53.4238 32.035 53.2888 32.32C52.7488 33.505 51.9388 34.105 50.8738 34.12C50.8588 34.135 50.8438 34.135 50.8438 34.135C50.2888 34.135 49.7938 33.955 49.4638 33.625C49.1638 33.325 49.0138 32.935 49.0138 32.515C49.0138 31.45 50.1388 30.535 52.5538 29.59L53.7088 29.125C53.6338 27.28 53.1088 26.92 52.2238 26.92C51.8638 26.92 51.5638 27.01 51.3088 27.205C51.3088 27.205 51.1888 27.295 51.1138 27.61C50.9938 28.165 50.2888 28.345 49.9138 27.925L49.6888 27.67C50.2438 27.325 51.4438 26.71 52.4488 26.71C53.5438 26.71 54.8638 27.16 54.8638 29.32V32.935C54.8638 32.965 54.8638 33.01 54.8638 33.04C54.9538 33.73 55.4938 32.755 55.4938 32.755ZM53.3638 31.54C53.6338 30.655 53.7088 29.68 53.7238 29.335L52.6138 29.8C50.5288 30.685 50.0638 31.09 50.0638 32.11C50.0638 32.845 50.7238 33.43 51.5638 33.43C52.3738 33.43 52.9738 32.8 53.3638 31.54ZM62.0674 26.845H62.4124C61.8424 27.985 61.3924 29.035 60.6124 30.835L60.3124 31.525L58.6024 35.665C57.9574 37.18 56.9374 37.645 55.7524 37.645L55.7674 37.36C55.7974 36.85 56.2624 36.475 56.7574 36.55C57.9424 36.73 58.3474 35.65 58.3474 35.65L58.7824 34.585L59.0524 33.94L56.5474 28.12L56.5324 28.09L56.4874 28L56.4574 27.91L56.4274 27.835L56.4124 27.805C56.1274 27.205 55.7374 28.135 55.7374 28.135H55.5574C55.5574 28.135 55.7524 27.55 56.1424 27.175C56.2024 27.1 56.2774 27.04 56.3524 26.995C56.3674 26.995 56.3674 26.995 56.3674 26.995C56.5024 26.905 56.6374 26.86 56.7874 26.845C56.8024 26.845 56.8324 26.845 56.8474 26.845C56.8774 26.845 56.9074 26.845 56.9524 26.845C57.2524 26.875 57.4174 27.04 57.5074 27.235H57.5224L59.6974 32.335L60.0724 31.48L60.1324 31.345L60.3874 30.745C60.4624 30.595 60.5224 30.445 60.5824 30.295V30.265L62.0674 26.845ZM68.8385 32.755H69.0185C69.0185 32.755 68.7485 33.565 68.2085 33.895C68.2085 33.91 68.2085 33.91 68.2085 33.91H68.1935C68.0735 33.985 67.9385 34.045 67.7735 34.045C67.7585 34.045 67.7435 34.045 67.7285 34.045C67.6835 34.045 67.6535 34.045 67.6235 34.045C67.1435 34 66.9935 33.625 66.9635 33.37C66.9635 33.28 66.9485 33.145 66.9485 33.04C66.9485 33.025 66.9335 33.01 66.9335 32.995C66.9335 32.98 66.9335 32.98 66.9335 32.965C66.9335 32.95 66.9335 32.95 66.9335 32.935V31.45C66.8585 31.735 66.7685 32.035 66.6335 32.32C66.0935 33.505 65.2835 34.105 64.2185 34.12C64.2035 34.135 64.1885 34.135 64.1885 34.135C63.6335 34.135 63.1385 33.955 62.8085 33.625C62.5085 33.325 62.3585 32.935 62.3585 32.515C62.3585 31.45 63.4835 30.535 65.8985 29.59L67.0535 29.125C66.9785 27.28 66.4535 26.92 65.5685 26.92C65.2085 26.92 64.9085 27.01 64.6535 27.205C64.6535 27.205 64.5335 27.295 64.4585 27.61C64.3385 28.165 63.6335 28.345 63.2585 27.925L63.0335 27.67C63.5885 27.325 64.7885 26.71 65.7935 26.71C66.8885 26.71 68.2085 27.16 68.2085 29.32V32.935C68.2085 32.965 68.2085 33.01 68.2085 33.04C68.2985 33.73 68.8385 32.755 68.8385 32.755ZM66.7085 31.54C66.9785 30.655 67.0535 29.68 67.0685 29.335L65.9585 29.8C63.8735 30.685 63.4085 31.09 63.4085 32.11C63.4085 32.845 64.0685 33.43 64.9085 33.43C65.7185 33.43 66.3185 32.8 66.7085 31.54Z" fill="#1C3340"/>
<path d="M132.36 29.74H75.09C74.9859 29.7464 74.882 29.7236 74.7902 29.6741C74.6983 29.6247 74.6221 29.5505 74.5701 29.4601C74.5182 29.3696 74.4925 29.2665 74.496 29.1622C74.4995 29.058 74.5321 28.9568 74.59 28.87C74.59 28.77 74.73 28.76 74.83 28.76H150.56C151.555 28.7835 152.535 28.5222 153.386 28.0071C154.237 27.492 154.923 26.7445 155.364 25.8525C155.804 24.9605 155.98 23.9613 155.872 22.9724C155.764 21.9836 155.375 21.0463 154.752 20.271C154.128 19.4957 153.296 18.9146 152.354 18.5961C151.412 18.2777 150.398 18.2352 149.432 18.4736C148.466 18.712 147.589 19.2214 146.903 19.9418C146.217 20.6623 145.751 21.5637 145.56 22.54C145.501 22.8706 145.465 23.2046 145.45 23.54C145.45 23.85 145.26 24.07 144.94 24.05C144.872 24.0454 144.805 24.0265 144.745 23.9946C144.684 23.9627 144.631 23.9185 144.589 23.8648C144.546 23.8111 144.516 23.7491 144.499 23.6828C144.482 23.6166 144.479 23.5475 144.49 23.48C144.558 21.9728 145.174 20.5422 146.221 19.4563C147.268 18.3704 148.676 17.7036 150.18 17.5809C151.683 17.4583 153.18 17.8882 154.39 18.79C155.599 19.6919 156.438 21.0038 156.75 22.48C157.055 24.0722 156.718 25.7206 155.811 27.0644C154.903 28.4082 153.501 29.3379 151.91 29.65C151.369 29.7467 150.82 29.7935 150.27 29.79L132.36 29.74Z" fill="#1C3340"/>
<path d="M132.69 30.47C138.63 30.47 144.56 30.47 150.5 30.47C151.956 30.4669 153.376 30.0175 154.568 29.1825C155.761 28.3475 156.669 27.167 157.17 25.8C157.525 24.8023 157.65 23.737 157.534 22.6842C157.418 21.6315 157.064 20.6189 156.5 19.7225C155.936 18.8262 155.176 18.0696 154.277 17.5097C153.378 16.9497 152.363 16.6011 151.31 16.49C151.09 16.49 150.86 16.49 150.63 16.43C150.4 16.37 150.07 16.28 150.08 15.93C150.09 15.58 150.32 15.48 150.64 15.48C152.395 15.4603 154.101 16.0586 155.46 17.17C156.468 17.9351 157.275 18.9338 157.812 20.0801C158.348 21.2263 158.598 22.4857 158.54 23.75C158.467 25.6451 157.723 27.4527 156.441 28.8502C155.159 30.2478 153.422 31.1443 151.54 31.38C151.098 31.4285 150.654 31.4519 150.21 31.45H86.34C86.2368 31.4623 86.1322 31.4451 86.0383 31.4004C85.9445 31.3557 85.8652 31.2853 85.8098 31.1973C85.7543 31.1094 85.7249 31.0076 85.7249 30.9036C85.725 30.7997 85.7545 30.6979 85.81 30.61C85.83 30.5663 85.8625 30.5297 85.9035 30.5047C85.9445 30.4797 85.9921 30.4677 86.04 30.47H132.69Z" fill="#1C3340"/>
<path d="M132.65 33.32H102.86C102.26 33.32 102.09 33.09 102.25 32.51C102.262 32.4509 102.295 32.3982 102.343 32.3614C102.39 32.3247 102.45 32.3064 102.51 32.31H103C115 32.31 138.46 32.31 150.49 32.31C152.183 32.3707 153.855 31.9155 155.284 31.0048C156.712 30.094 157.83 28.7706 158.49 27.21C159.175 25.8144 159.463 24.2577 159.324 22.7094C159.185 21.1612 158.623 19.6809 157.7 18.43C157.61 18.28 157.49 18.15 157.39 18.01C157.345 17.9609 157.311 17.9029 157.289 17.8397C157.268 17.7765 157.26 17.7096 157.265 17.6431C157.271 17.5767 157.291 17.5122 157.323 17.4538C157.355 17.3953 157.399 17.3442 157.452 17.3038C157.505 17.2633 157.566 17.2343 157.631 17.2187C157.696 17.2031 157.763 17.2011 157.829 17.213C157.895 17.2249 157.957 17.2503 158.012 17.2877C158.068 17.325 158.115 17.3735 158.15 17.43C158.661 18.0549 159.088 18.7441 159.42 19.48C160.045 20.8553 160.345 22.3564 160.295 23.8664C160.246 25.3764 159.849 26.8546 159.135 28.186C158.421 29.5174 157.409 30.6661 156.178 31.5427C154.948 32.4193 153.532 33.0001 152.04 33.24C151.467 33.3218 150.889 33.3585 150.31 33.35L132.65 33.32Z" fill="#1C3340"/>
<path d="M129.714 34.865H127.554C127.489 34.8825 127.42 34.8847 127.354 34.8715C127.288 34.8584 127.226 34.8302 127.172 34.7891C127.119 34.748 127.075 34.6951 127.045 34.6346C127.016 34.5741 127 34.5075 127 34.44C127 34.3725 127.016 34.3059 127.045 34.2454C127.075 34.1849 127.119 34.132 127.172 34.0909C127.226 34.0498 127.288 34.0216 127.354 34.0085C127.42 33.9953 127.489 33.9975 127.554 34.015H129.724C129.787 34.0055 129.851 34.0096 129.911 34.0271C129.972 34.0446 130.029 34.075 130.077 34.1163C130.125 34.1576 130.163 34.2088 130.19 34.2664C130.216 34.324 130.23 34.3866 130.23 34.45C130.23 34.5134 130.216 34.576 130.19 34.6336C130.163 34.6912 130.125 34.7424 130.077 34.7837C130.029 34.825 129.972 34.8554 129.911 34.8729C129.851 34.8904 129.787 34.8945 129.724 34.885L129.714 34.865Z" fill="#1C3340"/>
<path d="M116 35.08H113.83C113.713 35.08 113.601 35.0336 113.519 34.9511C113.436 34.8686 113.39 34.7567 113.39 34.64C113.39 34.5233 113.436 34.4114 113.519 34.3289C113.601 34.2464 113.713 34.2 113.83 34.2H116C116.117 34.2 116.229 34.2464 116.311 34.3289C116.394 34.4114 116.44 34.5233 116.44 34.64C116.44 34.7567 116.394 34.8686 116.311 34.9511C116.229 35.0336 116.117 35.08 116 35.08Z" fill="#1C3340"/>
<path d="M100.57 33.24H98.39C98.276 33.24 98.1666 33.1947 98.0859 33.1141C98.0053 33.0334 97.96 32.924 97.96 32.81C97.96 32.695 98.005 32.5846 98.0853 32.5024C98.1657 32.4201 98.275 32.3726 98.39 32.37H100.57C100.685 32.3726 100.794 32.4201 100.875 32.5024C100.955 32.5846 101 32.695 101 32.81C101 32.924 100.955 33.0334 100.874 33.1141C100.793 33.1947 100.684 33.24 100.57 33.24Z" fill="#1C3340"/>
<path d="M83.89 31.4H81.71C81.596 31.4 81.4866 31.3547 81.406 31.2741C81.3253 31.1934 81.28 31.084 81.28 30.97C81.28 30.855 81.325 30.7446 81.4053 30.6624C81.4857 30.5801 81.5951 30.5326 81.71 30.53H83.89C84.005 30.5326 84.1143 30.5801 84.1947 30.6624C84.2751 30.7446 84.32 30.855 84.32 30.97C84.32 31.084 84.2747 31.1934 84.1941 31.2741C84.1134 31.3547 84.0041 31.4 83.89 31.4Z" fill="#1C3340"/>
<path d="M160.443 28.8946C160.345 28.8953 160.25 28.8636 160.173 28.8046C160.127 28.7693 160.088 28.7252 160.059 28.6748C160.03 28.6245 160.011 28.5689 160.004 28.5112C159.996 28.4536 160 28.395 160.016 28.339C160.031 28.2829 160.057 28.2304 160.093 28.1846C160.48 27.6536 160.731 27.0354 160.823 26.3846C160.829 26.327 160.847 26.2712 160.875 26.2206C160.903 26.1701 160.941 26.1257 160.987 26.0902C161.033 26.0547 161.085 26.0288 161.141 26.0141C161.197 25.9994 161.256 25.9961 161.313 26.0046C161.37 26.0105 161.426 26.0283 161.476 26.0566C161.526 26.0849 161.57 26.1232 161.604 26.1692C161.639 26.2151 161.664 26.2677 161.677 26.3237C161.691 26.3797 161.693 26.4378 161.683 26.4946C161.569 27.3 161.26 28.0655 160.783 28.7246C160.744 28.7776 160.692 28.8207 160.633 28.8502C160.574 28.8798 160.509 28.8949 160.443 28.8946Z" fill="#1C3340"/>
</svg>