<svg width="20" height="20" viewBox="0 0 20 20" fill="none" xmlns="http://www.w3.org/2000/svg">
<path fill-rule="evenodd" clip-rule="evenodd" d="M14.3654 1.98568C13.9212 1.86619 13.5976 2.22655 13.3381 2.49676C12.7636 3.09562 13.2654 3.47112 13.9376 3.53879C14.4165 3.58706 14.9228 3.46095 15.1636 3.25036C15.263 3.16353 15.3926 2.81287 15.2454 2.54053C15.0982 2.2682 14.7644 2.0931 14.3654 1.98568ZM13.3952 2.95105C13.3802 2.81476 13.8499 2.29162 14.1975 2.20052C14.3794 2.15273 14.8961 2.34296 15.0371 2.59235C15.1655 2.81926 14.9444 3.09846 14.621 3.23569C14.183 3.42143 13.4306 3.27615 13.3952 2.95105ZM3.92169 5.90395C4.13546 4.87801 4.90114 3.51371 6.37567 4.14357C6.88145 4.35959 7.4179 5.1035 7.34585 5.73359C7.30685 6.07454 6.939 6.82484 6.66102 7.03968C5.70796 7.77648 3.66393 7.14118 3.92169 5.90395ZM6.71809 5.50644C6.60086 4.45589 4.40107 5.15886 4.60652 6.24467C5.33939 6.81514 6.82105 6.4297 6.71809 5.50644ZM11.7792 5.40186C11.3885 5.29468 10.8918 5.65314 10.7831 5.8235C10.5379 6.20799 10.6093 6.76805 10.6604 6.98076C10.7348 7.28812 11.136 7.47244 11.3507 7.52094C11.8001 7.62245 12.2505 7.62008 12.4169 7.0676C12.5713 6.55676 12.4997 5.59943 11.7792 5.40186ZM11.2201 7.26304C10.7907 7.04678 10.8299 6.52978 11.0202 6.15073C11.2066 5.77925 11.5542 5.55897 11.8315 5.69952C12.178 5.87532 12.186 6.42851 12.2025 6.80094C12.2312 7.4599 11.6646 7.33378 11.2201 7.26304ZM8.14482 9.31114C8.51934 9.31989 9.01798 9.53828 9.22914 9.93579C9.33948 10.1435 9.64575 11.1628 9.45742 11.6962C8.95259 13.1255 5.77264 13.3475 5.97619 10.9579C6.0675 9.88492 6.87337 9.28109 8.14482 9.31114ZM8.31603 9.99258C7.27784 10.0685 6.42656 10.5311 6.48981 11.5258C7.48781 12.9493 10.0868 10.8202 8.31603 9.99258ZM19.1837 5.98629C18.7609 5.06185 18.272 4.29476 17.6428 3.49478C16.6722 2.26062 15.5422 1.50394 14.1616 0.882605C12.8706 0.301254 10.9174 -0.119913 9.19656 0.0308081C5.90842 0.318763 2.77983 2.497 1.37806 5.02802C1.1612 5.41937 0.806179 6.03172 0.693229 6.33411C0.524637 6.78509 0.387908 7.38726 0.293744 7.86734C-0.0974192 9.85865 -0.175889 12.1526 0.546989 13.9996C0.846603 14.765 2.34634 16.4916 3.96521 17.6985C5.81711 19.0791 8.39189 19.9165 9.36777 19.9759C11.5578 20.1091 13.2756 19.6612 13.9226 19.3548C15.3058 18.6802 17.1946 17.4082 18.2325 15.6577C19.6892 13.2005 20.0944 11.0819 19.9824 9.79808C19.8662 8.46123 19.6688 7.04654 19.1837 5.98629ZM18.8413 6.67482C19.0139 7.21501 18.969 7.62529 18.9554 8.15127C16.1329 9.40909 13.812 6.28536 15.5883 4.46015C15.8701 4.17054 16.7609 3.43279 16.812 3.48863C17.6459 4.3939 18.4703 5.51307 18.8413 6.67482ZM11.6503 0.712246C11.3678 1.84348 10.3327 3.36559 8.96805 2.92692C8.35598 2.73006 7.80574 2.10067 7.65545 1.45047C7.60813 1.2458 7.58673 1.01724 7.55154 0.938682C8.58854 0.446296 10.4454 0.480604 11.6503 0.712246ZM4.00325 16.9529C3.09418 16.5138 2.57224 15.689 2.00582 14.9086C2.43622 14.4787 3.22212 15.022 3.71791 15.079C4.11573 15.5508 4.36469 16.4752 4.00325 16.9529ZM14.1045 18.4294C13.1605 18.967 12.1254 19.417 11.0228 19.4515C8.92905 19.5171 5.61689 18.3759 4.85929 17.6912C4.98461 16.3723 4.74682 14.9974 4.00325 14.3408C3.41782 13.8238 2.29545 13.8706 1.43513 14.1136C0.870382 13.2277 0.68348 12.0149 0.522021 10.9338C0.472561 10.6026 0.459245 10.2353 0.464952 9.91165C0.541044 5.63137 3.46395 2.2301 6.91379 1.10975C7.09166 1.90003 8.29368 3.57523 9.1395 3.77872C10.0374 3.9945 10.5092 3.69921 11.1372 3.21085C11.8593 2.64914 11.9447 1.78551 12.3356 0.882605C13.9823 1.28792 15.2937 2.02685 16.3512 3.01896C16.3031 3.04499 15.045 3.81492 14.747 4.36646C14.2807 5.22985 14.2184 6.35919 14.6755 7.35626C15.3779 8.87577 17.2505 9.62536 19.1269 9.11664C19.3639 13.7029 17.2122 16.6598 14.1045 18.4294ZM12.7986 10.9726C12.6069 10.5164 11.4617 10.099 11.258 10.6887C11.1246 11.0739 11.1578 11.6479 11.5433 11.8244C11.7057 11.8987 12.129 12.0217 12.392 11.8682C12.6816 11.6988 12.9603 11.3578 12.7986 10.9726ZM11.5431 11.4269C11.4437 11.1496 11.5947 10.9146 11.657 10.8593C11.9528 10.5966 12.4995 10.8737 12.5734 11.1129C12.6405 11.3289 12.4695 11.5426 12.1908 11.6349C12.0217 11.6907 11.5975 11.5788 11.5431 11.4269ZM16.0777 15.4441C15.615 15.684 15.0994 15.8714 14.3086 15.7846C13.0678 15.4069 13.0354 13.2635 14.2515 12.8887C15.5229 12.4966 16.9991 14.191 16.0777 15.4441ZM13.9088 14.4787C13.9768 15.0899 15.274 15.118 15.6209 14.7059C16.1669 14.0571 14.9444 13.6397 14.5364 13.7405C14.1916 13.8257 13.8705 14.1351 13.9088 14.4787ZM10.3708 15.4441C10.5439 15.5787 10.6107 15.8581 10.542 16.1255C10.3515 16.868 8.40758 16.947 8.31627 16.0687C8.27252 15.6492 9.04628 14.5681 9.51473 14.9898C9.72065 15.175 10.0685 15.2089 10.3708 15.4441ZM9.00086 15.2737C9.08718 15.3312 9.42603 15.2763 9.45742 15.1031C9.26077 15.0766 9.03653 15.0179 9.00086 15.2737ZM8.77259 15.6144C8.58473 15.8276 8.46703 15.9658 8.65845 16.2391C8.93214 16.6295 10.084 16.5611 10.3135 16.1825C10.484 15.9014 10.2987 15.667 10.1423 15.5011C10.054 15.4076 9.91659 15.4154 9.81315 15.3769C9.41723 15.2283 8.98945 15.3679 8.77259 15.6144Z" fill="white"/>
</svg>
