<svg width="19" height="23" viewBox="0 0 19 23" fill="none" xmlns="http://www.w3.org/2000/svg">
<path d="M13.3614 1.1814C11.7709 0.955069 10.1749 1.29509 8.68473 1.97094C6.22053 3.09112 4.03947 5.10935 2.5795 6.99922C1.06932 8.96007 1.13063 10.5205 1.23652 13.1238L1.25212 13.4785C1.358 16.2142 2.77232 18.1428 4.7561 19.4517C7.44767 21.2237 11.1892 21.8902 14.2352 21.8902C15.0276 21.8902 16.5634 21.668 17.4373 21.351C17.2155 21.2801 16.9124 21.2091 16.5078 21.1288C14.7402 20.7836 12.2714 19.5414 10.4582 17.9247C8.95808 16.5876 7.88258 14.9804 7.94387 13.3554C7.9695 12.6984 7.9539 12.0705 7.93829 11.4655C7.87811 8.86117 7.82684 6.61667 10.6354 3.76717C10.7614 3.63993 10.8985 3.48348 11.0545 3.30824C11.6095 2.68454 12.3875 1.81049 13.3627 1.17739L13.3614 1.1814ZM8.17001 0.973845C10.2965 0.0101091 12.6292 -0.353902 14.9474 0.415854H14.953C15.0845 0.462788 15.1904 0.543099 15.2662 0.6474C15.352 0.770474 15.3921 0.925888 15.3676 1.08233C15.352 1.18663 15.3074 1.29927 15.2317 1.3994C15.1458 1.51309 15.0099 1.62156 14.8282 1.69249C13.6368 2.14619 12.6259 3.27993 11.965 4.02256C11.7834 4.22594 11.6262 4.40534 11.5058 4.5232C9.01599 7.04725 9.06726 9.08315 9.12187 11.4467C9.13748 12.0704 9.15196 12.7181 9.12744 13.3981C9.08175 14.6602 9.99566 15.9879 11.274 17.1216C12.9357 18.6005 15.1672 19.7353 16.7487 20.0421C17.7785 20.2455 18.3748 20.477 18.6578 20.7179C19.0925 21.0913 19.0925 21.4741 18.7738 21.8423C18.6021 22.0405 18.3146 22.2063 17.9557 22.3481C16.956 22.7309 15.1482 23 14.2343 23C10.9922 23 6.98781 22.2814 4.06872 20.3581C1.80179 18.8645 0.185841 16.6534 0.0642959 13.515L0.0486926 13.1604C-0.0627581 10.3202 -0.132975 8.61909 1.61905 6.34552C3.17492 4.32732 5.51221 2.16819 8.16908 0.962655L8.17001 0.973845Z" fill="white"/>
</svg>
