<svg width="136" height="116" viewBox="0 0 136 116" fill="none" xmlns="http://www.w3.org/2000/svg">
<path d="M19.5764 49.5914C15.006 49.5914 11.5108 53.0864 11.5108 57.6569C11.5108 62.2275 15.0058 65.7225 19.5764 65.7225C24.1469 65.7225 27.6419 62.2275 27.6419 57.6569C27.6419 53.0864 24.1469 49.5914 19.5764 49.5914ZM19.5764 60.3455C17.9633 60.3455 16.8878 59.2701 16.8878 57.6569C16.8878 56.0438 17.9633 54.9684 19.5764 54.9684C21.1895 54.9684 22.2649 56.0438 22.2649 57.6569C22.2649 59.2701 21.1895 60.3455 19.5764 60.3455ZM127.117 38.8373H75.766L39.4706 2.54183C36.5131 -0.415634 31.1361 -0.415634 28.1788 2.54183L12.8543 17.8663C11.2412 19.4794 10.4347 21.3613 10.4347 23.5121C10.4347 25.6629 11.2413 27.8138 12.8543 29.1579L22.533 38.8366H8.82142C4.25102 38.8366 0.755859 42.3316 0.755859 46.9022V68.4103C0.755859 72.9807 4.25085 76.4759 8.82142 76.4759H60.1726L96.4681 112.771C98.0812 114.384 99.9631 115.191 102.114 115.191C104.265 115.191 106.416 114.384 107.76 112.771L123.084 97.4469C124.697 95.8338 125.504 93.9519 125.504 91.8011C125.504 89.6503 124.697 87.4994 123.084 86.1553L113.406 76.4766H127.117C131.687 76.4766 135.183 72.9816 135.183 68.411V46.9029C135.183 42.3325 131.688 38.8373 127.117 38.8373ZM16.6186 25.3947C16.0809 24.857 15.812 24.3193 15.812 23.5126C15.812 22.706 16.0809 22.1684 16.6186 21.6306L31.9431 6.3061C33.0185 5.23069 34.6316 5.23069 35.707 6.3061L68.2377 38.8368H30.0598L16.6186 25.3947ZM119.321 89.9192C119.859 90.4569 120.128 90.9946 120.128 91.8013C120.128 92.6079 119.859 93.1455 119.321 93.6833L103.996 109.008C102.921 110.083 101.308 110.083 100.233 109.008L67.7019 76.4771H105.88L119.321 89.9192ZM129.806 68.411C129.806 70.0241 128.731 71.0996 127.118 71.0996H124.429V60.3455C124.429 58.7324 123.354 57.6569 121.741 57.6569C120.128 57.6569 119.052 58.7324 119.052 60.3455V71.0996H113.675V65.7225C113.675 64.1094 112.6 63.034 110.987 63.034C109.373 63.034 108.298 64.1094 108.298 65.7225V71.0996H102.921V60.3455C102.921 58.7324 101.846 57.6569 100.233 57.6569C98.6194 57.6569 97.544 58.7324 97.544 60.3455V71.0996H92.167V65.7225C92.167 64.1094 91.0916 63.034 89.4784 63.034C87.8653 63.034 86.7899 64.1094 86.7899 65.7225V71.0996H81.4129V60.3455C81.4129 58.7324 80.3375 57.6569 78.7244 57.6569C77.1112 57.6569 76.0358 58.7324 76.0358 60.3455V71.0996H70.6588V65.7225C70.6588 64.1094 69.5834 63.034 67.9703 63.034C66.3572 63.034 65.2818 64.1094 65.2818 65.7225V71.0996H59.9047V60.3455C59.9047 58.7324 58.8293 57.6569 57.2162 57.6569C55.6031 57.6569 54.5277 58.7324 54.5277 60.3455V71.0996H49.1506V65.7225C49.1506 64.1094 48.0752 63.034 46.4621 63.034C44.849 63.034 43.7736 64.1094 43.7736 65.7225V71.0996H38.3965V60.3455C38.3965 58.7324 37.3211 57.6569 35.708 57.6569C34.0949 57.6569 33.0195 58.7324 33.0195 60.3455V71.0996H8.82366C7.21055 71.0996 6.13514 70.0241 6.13514 68.411V46.9029C6.13514 45.2897 7.21055 44.2143 8.82366 44.2143H127.119C128.732 44.2143 129.807 45.2897 129.807 46.9029L129.806 68.411Z" fill="#1C323F"/>
</svg>
