<svg width="135" height="115" viewBox="0 0 135 115" fill="none" xmlns="http://www.w3.org/2000/svg">
<path d="M19.3039 49.3341C14.7335 49.3341 11.2383 52.829 11.2383 57.3996C11.2383 61.9702 14.7333 65.4652 19.3039 65.4652C23.8745 65.4652 27.3695 61.9702 27.3695 57.3996C27.3695 52.829 23.8745 49.3341 19.3039 49.3341ZM19.3039 60.0881C17.6908 60.0881 16.6154 59.0127 16.6154 57.3996C16.6154 55.7865 17.6908 54.7111 19.3039 54.7111C20.917 54.7111 21.9924 55.7865 21.9924 57.3996C21.9924 59.0127 20.917 60.0881 19.3039 60.0881ZM126.845 38.58H75.4936L39.1981 2.2845C36.2406 -0.672959 30.8636 -0.672959 27.9063 2.2845L12.5818 17.609C10.9687 19.2221 10.1622 21.104 10.1622 23.2548C10.1622 25.4056 10.9688 27.5564 12.5818 28.9006L22.2605 38.5793H8.54896C3.97856 38.5793 0.483398 42.0743 0.483398 46.6448V68.153C0.483398 72.7234 3.97839 76.2186 8.54896 76.2186H59.9002L96.1956 112.514C97.8087 114.127 99.6906 114.934 101.841 114.934C103.992 114.934 106.143 114.127 107.487 112.514L122.812 97.1896C124.425 95.5764 125.231 93.6946 125.231 91.5438C125.231 89.3929 124.425 87.2421 122.812 85.8979L113.133 76.2193H126.845C131.415 76.2193 134.91 72.7243 134.91 68.1537V46.6455C134.91 42.0751 131.415 38.58 126.845 38.58ZM16.3461 25.1374C15.8084 24.5997 15.5395 24.062 15.5395 23.2553C15.5395 22.4487 15.8084 21.911 16.3461 21.3733L31.6706 6.04878C32.746 4.97337 34.3591 4.97337 35.4345 6.04878L67.9652 38.5795H29.7873L16.3461 25.1374ZM119.048 89.6619C119.586 90.1996 119.855 90.7373 119.855 91.5439C119.855 92.3506 119.586 92.8882 119.048 93.426L103.724 108.75C102.649 109.826 101.035 109.826 99.9601 108.75L67.4294 76.2198H105.607L119.048 89.6619ZM129.534 68.1537C129.534 69.7668 128.458 70.8422 126.845 70.8422H124.157V60.0881C124.157 58.475 123.081 57.3996 121.468 57.3996C119.855 57.3996 118.78 58.475 118.78 60.0881V70.8422H113.403V65.4652C113.403 63.8521 112.327 62.7767 110.714 62.7767C109.101 62.7767 108.026 63.8521 108.026 65.4652V70.8422H102.649V60.0881C102.649 58.475 101.573 57.3996 99.9601 57.3996C98.347 57.3996 97.2715 58.475 97.2715 60.0881V70.8422H91.8945V65.4652C91.8945 63.8521 90.8191 62.7767 89.206 62.7767C87.5929 62.7767 86.5175 63.8521 86.5175 65.4652V70.8422H81.1404V60.0881C81.1404 58.475 80.065 57.3996 78.4519 57.3996C76.8388 57.3996 75.7634 58.475 75.7634 60.0881V70.8422H70.3863V65.4652C70.3863 63.8521 69.3109 62.7767 67.6978 62.7767C66.0847 62.7767 65.0093 63.8521 65.0093 65.4652V70.8422H59.6323V60.0881C59.6323 58.475 58.5568 57.3996 56.9437 57.3996C55.3306 57.3996 54.2552 58.475 54.2552 60.0881V70.8422H48.8782V65.4652C48.8782 63.8521 47.8028 62.7767 46.1896 62.7767C44.5765 62.7767 43.5011 63.8521 43.5011 65.4652V70.8422H38.1241V60.0881C38.1241 58.475 37.0487 57.3996 35.4356 57.3996C33.8224 57.3996 32.747 58.475 32.747 60.0881V70.8422H8.5512C6.93809 70.8422 5.86268 69.7668 5.86268 68.1537V46.6455C5.86268 45.0324 6.93809 43.957 8.5512 43.957H126.846C128.459 43.957 129.535 45.0324 129.535 46.6455L129.534 68.1537Z" fill="white"/>
</svg>
