<svg width="27" height="27" viewBox="0 0 27 27" fill="none" xmlns="http://www.w3.org/2000/svg">
<path d="M6.90581 15.5321C7.66268 19.1649 11.1179 21.5879 14.8354 20.9653C19.3099 20.2454 21.6789 15.5308 21.021 11.3422C21.021 11.277 21.021 11.2118 20.9876 11.1453C20.9876 11.0801 20.9542 11.0148 20.9221 10.9816C20.4286 9.2797 19.5069 7.67613 17.8621 6.92325C15.8883 6.00644 13.5512 6.00644 11.5775 6.85804C8.3213 8.26586 6.18243 12.0299 6.90581 15.5321ZM11.5775 7.84936C13.0578 7.06426 15.7945 7.25988 17.3722 7.84936C18.918 8.40557 19.7674 10.1612 20.1632 11.6676C20.8211 15.138 18.0151 19.671 14.2323 19.9983C11.4695 20.2272 8.47781 18.2494 7.95247 15.5321C7.49117 13.0119 9.30676 9.06018 11.5775 7.84936Z" fill="#1C323F"/>
<path d="M10.4864 4.19422C10.552 4.62002 10.8154 5.01257 11.309 5.01257C11.7035 5.01257 11.8524 4.45688 11.8943 4.19422C11.7298 3.01528 11.4997 1.6798 11.3018 0.53398C11.1039 -0.513244 9.82844 0.134298 10.025 1.14957C10.1908 2.16485 10.3554 3.18022 10.4864 4.19422Z" fill="#1C323F"/>
<path d="M19.7015 6.55974C20.1295 6.78862 20.5575 6.62495 20.8196 6.26564C21.4121 5.44729 22.0046 4.62894 22.6291 3.8106C22.8926 3.45 22.6947 2.89379 22.3336 2.69817C21.9056 2.46929 21.6048 2.99943 21.3427 3.35874C20.7502 4.17709 20.3261 4.62307 19.7016 5.44142C19.4381 5.76748 19.3391 6.32958 19.7015 6.55974Z" fill="#1C323F"/>
<path d="M2.15724 7.96391C3.01317 8.52013 3.83567 9.14286 4.55921 9.82948C5.34829 10.5494 6.29939 9.57865 5.51031 8.89071C4.65438 8.10562 3.7063 7.42945 2.71929 6.80803C1.86336 6.21983 1.26916 7.4077 2.15724 7.96391Z" fill="#1C323F"/>
<path d="M3.76598 15.833C2.71343 16.1271 1.6799 16.2318 0.626038 16.5272C-0.3944 16.8213 -0.0800748 18.2434 0.940363 17.9493C1.99291 17.6552 3.04546 17.3279 4.09932 17.0325C5.15187 16.7371 4.78513 15.5056 3.76598 15.833Z" fill="#1C323F"/>
<path d="M8.30137 22.081C7.57782 22.8341 6.99337 23.498 6.36747 24.3496C6.10401 24.7102 6.00633 25.1507 6.36747 25.3463C6.79543 25.5752 7.2234 25.4116 7.48555 25.0523C8.01248 24.3324 8.63706 23.6444 9.22953 22.9897C9.98779 22.2366 9.05834 21.2946 8.30137 22.081Z" fill="#1C323F"/>
<path d="M15.2847 22.8266C15.3836 23.8738 15.5803 24.8891 15.8771 25.9031C16.1727 26.9184 17.5098 26.6998 17.1808 25.6845C16.9173 24.8329 16.5499 23.8245 16.483 22.9076C16.3841 21.8617 15.1857 21.7794 15.2847 22.8266Z" fill="#1C323F"/>
<path d="M20.8925 18.2195C20.7614 18.6772 21.057 19.0711 21.4515 19.2348C22.472 19.6606 23.5245 20.0531 24.5771 20.3804C25.5975 20.7078 26.1001 19.4043 25.081 19.077C24.0284 18.7164 22.9615 18.4615 21.9411 18.0356C21.5452 17.872 20.9902 17.8269 20.8925 18.2195Z" fill="#1C323F"/>
<path d="M25.9655 10.5239C25.0775 10.8513 24.2245 10.9662 23.3031 11.0314C22.2505 11.1299 22.2505 12.4458 23.3031 12.3474C24.3891 12.2489 25.4082 12.0533 26.4286 11.6927C27.4478 11.3321 26.986 10.1634 25.9655 10.5239Z" fill="#1C323F"/>
</svg>
