<svg width="164" height="36" viewBox="0 0 164 36" fill="none" xmlns="http://www.w3.org/2000/svg">
<path d="M5.56051 17.1344C4.62452 17.1299 3.72525 16.9756 2.86271 16.6714C2.01222 16.3553 1.35414 15.9561 0.888453 15.4739L1.41539 14.4504C1.8573 14.8846 2.44953 15.2534 3.19208 15.557C3.94668 15.8486 4.73798 15.9964 5.56597 16.0004C6.35796 16.0042 7.00042 15.9113 7.49334 15.7217C7.99831 15.5201 8.36561 15.2519 8.59522 14.917C8.83684 14.5822 8.95863 14.2108 8.9606 13.8028C8.96297 13.3108 8.82087 12.9141 8.53432 12.6127C8.25977 12.3114 7.8949 12.0756 7.43972 11.9054C6.98459 11.7232 6.48135 11.5648 5.92999 11.4301C5.37863 11.2955 4.8273 11.1548 4.276 11.0082C3.72476 10.8495 3.21575 10.643 2.74897 10.3888C2.29419 10.1346 1.92378 9.80282 1.63775 9.39343C1.36377 8.97211 1.22841 8.42545 1.23164 7.75346C1.23465 7.12947 1.39939 6.56025 1.72587 6.04582C2.06441 5.51944 2.57643 5.1019 3.26192 4.7932C3.94748 4.4725 4.82425 4.31472 5.89223 4.31987C6.60023 4.32328 7.30173 4.42866 7.99674 4.63601C8.6918 4.83136 9.2905 5.10424 9.79281 5.45467L9.3377 6.51449C8.79944 6.15189 8.22472 5.88512 7.61354 5.71417C7.01435 5.54329 6.43277 5.45648 5.86877 5.45377C5.11278 5.45013 4.4883 5.54912 3.99532 5.75075C3.50234 5.95237 3.13502 6.22661 2.89335 6.57345C2.66373 6.90835 2.54788 7.29179 2.5458 7.72379C2.54343 8.21578 2.67952 8.61244 2.95407 8.91377C3.24063 9.21515 3.61149 9.45094 4.06668 9.62113C4.53386 9.79139 5.04314 9.94384 5.59449 10.0785C6.14585 10.2132 6.69115 10.3598 7.23039 10.5184C7.78164 10.677 8.28465 10.8835 8.73943 11.1377C9.20627 11.3799 9.5767 11.7057 9.85073 12.115C10.1368 12.5244 10.2782 13.0591 10.275 13.7191C10.2721 14.3311 10.1013 14.9003 9.76278 15.4266C9.4243 15.941 8.90629 16.3585 8.20873 16.6792C7.52324 16.9879 6.6405 17.1396 5.56051 17.1344ZM13.3412 17.0639L13.4018 4.46404L14.7338 4.47045L14.6731 17.0703L13.3412 17.0639ZM16.9368 17.0812L22.7574 4.5091L24.0714 4.51543L29.7706 17.143L28.3666 17.1363L23.1316 5.28491L23.6716 5.28751L18.3227 17.0879L16.9368 17.0812ZM19.2209 13.7262L19.6221 12.6481L26.9481 12.6834L27.3388 13.7653L19.2209 13.7262ZM32.0349 17.1539L32.0956 4.55408L36.8116 4.57679C37.8795 4.58194 38.7967 4.76036 39.563 5.11205C40.3294 5.45175 40.915 5.94657 41.3199 6.59653C41.7368 7.23455 41.9431 8.00955 41.9387 8.92154C41.9344 9.80953 41.7207 10.5765 41.2976 11.2225C40.8865 11.8565 40.2962 12.3457 39.5265 12.69C38.7569 13.0223 37.8381 13.1858 36.7701 13.1807L32.7922 13.1615L33.3891 12.5524L33.3669 17.1603L32.0349 17.1539ZM40.6388 17.1954L37.4209 12.6078L38.8609 12.6148L42.0968 17.2024L40.6388 17.1954ZM33.3886 12.6604L32.7976 12.0275L36.7396 12.0465C37.9996 12.0526 38.9549 11.7812 39.6055 11.2323C40.2682 10.6835 40.6019 9.91111 40.6067 8.91512C40.6116 7.90713 40.2853 7.12555 39.628 6.57038C38.9827 6.01527 38.03 5.73467 36.77 5.72861L32.8281 5.70962L33.4251 5.08249L33.3886 12.6604ZM50.748 17.3521C49.788 17.3474 48.9008 17.1872 48.0863 16.8712C47.2839 16.5434 46.584 16.09 45.9868 15.5111C45.4016 14.9323 44.9429 14.2521 44.6106 13.4705C44.2904 12.6889 44.1325 11.8361 44.1369 10.9121C44.1414 9.98816 44.3075 9.13695 44.6352 8.35852C44.975 7.58015 45.4463 6.90441 46.049 6.33131C46.6518 5.7582 47.3559 5.31759 48.1614 5.00946C48.979 4.6894 49.8677 4.53168 50.8277 4.5363C51.7877 4.54092 52.663 4.69514 53.4535 4.99895C54.2561 5.30282 54.9379 5.76211 55.4989 6.37682L54.6669 7.21882C54.1414 6.68829 53.5612 6.30749 52.9263 6.07643C52.2914 5.84537 51.608 5.72807 50.876 5.72455C50.096 5.72079 49.3754 5.84932 48.7141 6.11014C48.0649 6.35902 47.4932 6.72227 46.9989 7.19989C46.5166 7.66557 46.136 8.21575 45.8569 8.85041C45.5899 9.47313 45.4546 10.1625 45.4509 10.9185C45.4473 11.6625 45.576 12.3531 45.837 12.9904C46.1099 13.6277 46.4852 14.1875 46.9629 14.6698C47.4526 15.1402 48.0208 15.5089 48.6676 15.776C49.3263 16.0312 50.0397 16.1606 50.8077 16.1643C51.5277 16.1678 52.2062 16.0631 52.8433 15.8501C53.4923 15.6373 54.088 15.2741 54.6305 14.7607L55.3817 15.7724C54.7791 16.2975 54.0752 16.6961 53.2699 16.9682C52.4646 17.2283 51.624 17.3563 50.748 17.3521ZM54.1045 15.6042L54.1268 10.9603L55.4048 10.9664L55.3817 15.7724L54.1045 15.6042ZM57.3083 17.2757L63.1289 4.70355L64.4429 4.70988L70.1422 17.3375L68.7382 17.3307L63.5032 5.47936L64.0432 5.48196L58.6943 17.2823L57.3083 17.2757ZM59.5925 13.9206L59.9937 12.8425L67.3196 12.8778L67.7104 13.9597L59.5925 13.9206ZM77.7381 17.4821C76.7901 17.4775 75.9089 17.3173 75.0944 17.0013C74.292 16.6735 73.5922 16.2201 72.9949 15.6412C72.4098 15.0504 71.951 14.3702 71.6187 13.6005C71.2985 12.819 71.1406 11.9662 71.1451 11.0422C71.1495 10.1182 71.3156 9.27304 71.6433 8.50661C71.983 7.72823 72.4483 7.05247 73.0391 6.4793C73.6419 5.8942 74.346 5.44759 75.1515 5.13946C75.9571 4.81934 76.8399 4.66159 77.7999 4.66621C78.7478 4.67078 79.6231 4.837 80.4255 5.16487C81.228 5.48073 81.9218 5.92808 82.507 6.50691C83.1043 7.08579 83.563 7.76601 83.8832 8.54756C84.2155 9.32917 84.3794 10.182 84.3749 11.106C84.3705 12.0299 84.1984 12.8811 83.8586 13.6595C83.5309 14.4379 83.0656 15.1137 82.4628 15.6868C81.8721 16.26 81.1739 16.7066 80.3683 17.0267C79.5629 17.3349 78.6861 17.4866 77.7381 17.4821ZM77.7438 16.2941C78.4998 16.2977 79.1964 16.1751 79.8336 15.9261C80.4829 15.6653 81.0427 15.302 81.5129 14.8362C81.9952 14.3585 82.3699 13.8083 82.6369 13.1856C82.9039 12.5509 83.0393 11.8555 83.0429 11.0995C83.0466 10.3436 82.9179 9.65292 82.6569 9.02766C82.396 8.39039 82.0266 7.83661 81.5489 7.3663C81.0832 6.88405 80.527 6.51537 79.8802 6.26025C79.2455 5.99319 78.5501 5.85784 77.7941 5.8542C77.0381 5.85056 76.3355 5.97918 75.6862 6.24005C75.037 6.48893 74.4713 6.85221 73.989 7.32989C73.5187 7.79563 73.1441 8.34583 72.865 8.98049C72.598 9.60322 72.4627 10.2926 72.4591 11.0486C72.4555 11.7926 72.5841 12.4832 72.8451 13.1204C73.118 13.7578 73.4873 14.3176 73.953 14.7998C74.4307 15.2701 74.993 15.6388 75.6397 15.9059C76.2865 16.1611 76.9879 16.2904 77.7438 16.2941ZM95.8745 17.5694C94.9385 17.5649 94.0392 17.4106 93.1767 17.1064C92.3262 16.7903 91.6681 16.3911 91.2024 15.9089L91.7293 14.8854C92.1713 15.3196 92.7635 15.6884 93.506 15.992C94.2606 16.2836 95.0519 16.4314 95.8799 16.4354C96.6719 16.4392 97.3144 16.3463 97.8073 16.1567C98.3123 15.9551 98.6796 15.6869 98.9092 15.352C99.1508 15.0172 99.2726 14.6458 99.2745 14.2378C99.2769 13.7458 99.1348 13.3491 98.8483 13.0477C98.5737 12.7464 98.2089 12.5106 97.7537 12.3404C97.2985 12.1582 96.7953 11.9998 96.2439 11.8651C95.6926 11.7305 95.1413 11.5898 94.59 11.4432C94.0387 11.2845 93.5297 11.0781 93.0629 10.8238C92.6081 10.5696 92.2377 10.2378 91.9517 9.82844C91.6777 9.40711 91.5424 8.86045 91.5456 8.18846C91.5486 7.56447 91.7133 6.99526 92.0398 6.48082C92.3784 5.95445 92.8904 5.53691 93.5759 5.22821C94.2614 4.9075 95.1382 4.74973 96.2062 4.75487C96.9142 4.75828 97.6157 4.86366 98.3107 5.07101C99.0058 5.26636 99.6044 5.53925 100.107 5.88967L99.6517 6.94949C99.1134 6.58689 98.5387 6.32012 97.9275 6.14918C97.3283 5.97829 96.7467 5.89149 96.1827 5.88877C95.4267 5.88513 94.8023 5.98412 94.3093 6.18575C93.8163 6.38738 93.449 6.66161 93.2073 7.00845C92.9777 7.34335 92.8618 7.7268 92.8598 8.15879C92.8574 8.65078 92.9935 9.04744 93.268 9.34877C93.5546 9.65015 93.9254 9.88594 94.3806 10.0561C94.8478 10.2264 95.3571 10.3788 95.9084 10.5135C96.4598 10.6482 97.0051 10.7948 97.5443 10.9534C98.0956 11.112 98.5986 11.3185 99.0534 11.5727C99.5202 11.8149 99.8907 12.1407 100.165 12.55C100.451 12.9594 100.592 13.4941 100.589 14.1541C100.586 14.7661 100.415 15.3353 100.077 15.8616C99.7383 16.376 99.2202 16.7935 98.5227 17.1142C97.8372 17.4229 96.9544 17.5746 95.8745 17.5694ZM108.731 17.6313C107.123 17.6236 105.859 17.1555 104.939 16.2271C104.02 15.2986 103.564 13.9284 103.573 12.1164L103.608 4.89852L104.94 4.90494L104.905 12.0689C104.898 13.5568 105.229 14.6564 105.897 15.3677C106.566 16.0789 107.512 16.4375 108.736 16.4434C109.972 16.4493 110.928 16.0999 111.603 15.3952C112.279 14.6904 112.62 13.594 112.627 12.106L112.662 4.94213L113.958 4.94837L113.923 12.1663C113.914 13.9783 113.446 15.344 112.517 16.2636C111.601 17.1832 110.339 17.6391 108.731 17.6313ZM118.091 17.5684L118.151 4.96857L122.867 4.99129C123.935 4.99643 124.853 5.17485 125.619 5.52655C126.385 5.86624 126.971 6.36107 127.376 7.01102C127.793 7.64904 127.999 8.42404 127.995 9.33603C127.99 10.224 127.777 10.991 127.353 11.637C126.942 12.271 126.352 12.7602 125.582 13.1045C124.813 13.4368 123.894 13.6003 122.826 13.5952L118.848 13.576L119.445 12.9669L119.423 17.5748L118.091 17.5684ZM126.695 17.6099L123.477 13.0223L124.917 13.0292L128.153 17.6169L126.695 17.6099ZM119.444 13.0749L118.854 12.442L122.795 12.461C124.055 12.4671 125.011 12.1957 125.661 11.6468C126.324 11.098 126.658 10.3256 126.663 9.32962C126.667 8.32163 126.341 7.54005 125.684 6.98487C125.039 6.42976 124.086 6.14917 122.826 6.1431L118.884 6.12411L119.481 5.49698L119.444 13.0749ZM132.498 11.1397L139.158 11.1718L139.152 12.3238L132.492 12.2917L132.498 11.1397ZM132.61 17.6384L131.278 17.6319L131.339 5.03209L139.979 5.0737L139.973 6.22569L132.666 6.19049L132.61 17.6384Z" fill="white"/>
<path d="M2.2001 26.6783L6.64005 26.6997L6.63635 27.4677L2.1964 27.4463L2.2001 26.6783ZM2.27523 31.0107L1.38724 31.0064L1.4277 22.6065L7.18764 22.6343L7.18394 23.4023L2.31199 23.3788L2.27523 31.0107ZM12.667 31.1328C12.0351 31.1297 11.4476 31.0229 10.9046 30.8123C10.3696 30.5937 9.90307 30.2915 9.50492 29.9055C9.11481 29.5117 8.80899 29.0582 8.58746 28.5451C8.37397 28.0241 8.26871 27.4556 8.27167 26.8396C8.27464 26.2236 8.38536 25.6601 8.60382 25.1491C8.83032 24.6302 9.14049 24.1797 9.53434 23.7976C9.93622 23.4075 10.4057 23.1098 10.9427 22.9044C11.4797 22.691 12.0682 22.5858 12.7082 22.5889C13.3402 22.5919 13.9237 22.7027 14.4586 22.9213C14.9936 23.1319 15.4562 23.4301 15.8463 23.816C16.2445 24.2019 16.5503 24.6554 16.7638 25.1764C16.9853 25.6975 17.0945 26.266 17.0916 26.882C17.0886 27.498 16.9739 28.0655 16.7474 28.5844C16.5289 29.1034 16.2187 29.5539 15.8168 29.9359C15.423 30.318 14.9576 30.6158 14.4205 30.8292C13.8835 31.0346 13.299 31.1358 12.667 31.1328ZM12.6709 30.3408C13.1749 30.3432 13.6393 30.2615 14.0641 30.0955C14.4969 29.9216 14.8701 29.6794 15.1836 29.3689C15.5051 29.0504 15.7549 28.6836 15.9329 28.2685C16.1109 27.8453 16.2012 27.3818 16.2036 26.8778C16.206 26.3738 16.1202 25.9134 15.9462 25.4965C15.7723 25.0717 15.5261 24.7025 15.2076 24.3889C14.8971 24.0674 14.5263 23.8217 14.0951 23.6516C13.6719 23.4735 13.2084 23.3833 12.7044 23.3809C12.2004 23.3784 11.732 23.4642 11.2991 23.6381C10.8663 23.804 10.4892 24.0462 10.1676 24.3647C9.85412 24.6752 9.60435 25.042 9.41831 25.4651C9.24031 25.8802 9.15009 26.3398 9.14766 26.8438C9.14527 27.3398 9.23106 27.8002 9.40501 28.225C9.58697 28.6499 9.83317 29.0231 10.1436 29.3446C10.4621 29.6581 10.8369 29.904 11.2681 30.082C11.6993 30.2521 12.1669 30.3384 12.6709 30.3408ZM19.1817 31.0922L19.2222 22.6923L22.3661 22.7074C23.0781 22.7108 23.6896 22.8298 24.2004 23.0642C24.7114 23.2907 25.1018 23.6206 25.3717 24.0539C25.6497 24.4792 25.7872 24.9959 25.7842 25.6039C25.7814 26.1959 25.6389 26.7072 25.3568 27.1379C25.0828 27.5605 24.6892 27.8866 24.1761 28.1162C23.663 28.3377 23.0505 28.4468 22.3385 28.4433L19.6865 28.4306L20.0845 28.0245L20.0697 31.0964L19.1817 31.0922ZM24.9177 31.1198L22.7724 28.0614L23.7324 28.066L25.8896 31.1245L24.9177 31.1198ZM20.0842 28.0965L19.6902 27.6746L22.3182 27.6872C23.1582 27.6913 23.795 27.5103 24.2288 27.1444C24.6706 26.7785 24.893 26.2636 24.8962 25.5996C24.8995 24.9276 24.682 24.4066 24.2438 24.0365C23.8135 23.6664 23.1784 23.4793 22.3384 23.4753L19.7105 23.4626L20.1085 23.0445L20.0842 28.0965ZM28.7879 26.4944L33.2278 26.5158L33.2242 27.2717L28.7842 27.2504L28.7879 26.4944ZM28.8652 30.3708L33.9171 30.3951L33.9134 31.1631L27.9735 31.1345L28.014 22.7346L33.7739 22.7623L33.7702 23.5303L28.8982 23.5069L28.8652 30.3708ZM39.7449 31.2632C39.1129 31.2602 38.5294 31.1533 37.9944 30.9428C37.4595 30.7242 36.9969 30.422 36.6068 30.0361C36.2166 29.6502 35.9108 29.1967 35.6893 28.6756C35.4758 28.1546 35.3706 27.5861 35.3735 26.9701C35.3765 26.3541 35.4872 25.7866 35.7057 25.2677C35.9323 24.7488 36.2424 24.2983 36.6363 23.9161C37.0381 23.5341 37.5075 23.2403 38.0445 23.0349C38.5816 22.8215 39.1661 22.7163 39.7981 22.7194C40.4061 22.7223 40.9776 22.829 41.5125 23.0396C42.0476 23.2422 42.4981 23.5484 42.8641 23.9581L42.2974 24.5194C41.9551 24.1658 41.5763 23.9119 41.1611 23.7579C40.7459 23.5959 40.2983 23.5138 39.8183 23.5115C39.3143 23.509 38.8458 23.5948 38.413 23.7687C37.9802 23.9346 37.603 24.1768 37.2815 24.4953C36.96 24.8057 36.7062 25.1725 36.5202 25.5956C36.3422 26.0108 36.252 26.4703 36.2495 26.9743C36.2471 27.4783 36.3329 27.9427 36.5068 28.3676C36.6888 28.7845 36.939 29.1537 37.2575 29.4752C37.576 29.7887 37.9508 30.0345 38.382 30.2126C38.8131 30.3827 39.2807 30.469 39.7847 30.4714C40.2647 30.4737 40.7131 30.3959 41.1299 30.2379C41.5466 30.0799 41.9279 29.8257 42.2736 29.4754L42.8348 30.0421C42.4649 30.4483 42.0114 30.7541 41.4744 30.9595C40.9374 31.1649 40.3609 31.2662 39.7449 31.2632ZM43.2873 31.2083L47.1677 22.8269L48.0437 22.8311L51.8432 31.2495L50.9072 31.245L47.4172 23.3441L47.7772 23.3458L44.2113 31.2127L43.2873 31.2083ZM44.8101 28.9716L45.0775 28.2529L49.9615 28.2764L50.222 28.9976L44.8101 28.9716ZM55.6684 31.3399C55.0444 31.3369 54.4449 31.234 53.8698 31.0312C53.3028 30.8205 52.8641 30.5544 52.5537 30.2329L52.9049 29.5506C53.1996 29.84 53.5944 30.0859 54.0894 30.2883C54.5925 30.4827 55.12 30.5812 55.672 30.5839C56.2 30.5865 56.6283 30.5245 56.9569 30.3981C57.2936 30.2637 57.5384 30.0849 57.6915 29.8616C57.8526 29.6384 57.9338 29.3908 57.9351 29.1188C57.9367 28.7908 57.8419 28.5263 57.6509 28.3254C57.4679 28.1245 57.2246 27.9674 56.9212 27.8539C56.6177 27.7324 56.2823 27.6268 55.9147 27.537C55.5471 27.4473 55.1796 27.3535 54.812 27.2557C54.4445 27.15 54.1052 27.0123 53.794 26.8428C53.4908 26.6734 53.2439 26.4522 53.0532 26.1792C52.8705 25.8984 52.7803 25.5339 52.7824 25.0859C52.7845 24.6699 52.8943 24.2905 53.1119 23.9475C53.3376 23.5966 53.679 23.3182 54.136 23.1124C54.593 22.8986 55.1775 22.7934 55.8895 22.7969C56.3615 22.7991 56.8292 22.8694 57.2925 23.0076C57.7559 23.1379 58.155 23.3198 58.4899 23.5534L58.1865 24.2599C57.8277 24.0182 57.4445 23.8404 57.037 23.7264C56.6376 23.6125 56.2499 23.5546 55.8739 23.5528C55.3699 23.5504 54.9536 23.6164 54.6249 23.7508C54.2963 23.8852 54.0514 24.068 53.8903 24.2993C53.7372 24.5225 53.6599 24.7781 53.6586 25.0661C53.657 25.3941 53.7477 25.6586 53.9307 25.8595C54.1218 26.0604 54.369 26.2176 54.6725 26.331C54.9839 26.4445 55.3234 26.5462 55.691 26.636C56.0586 26.7257 56.4221 26.8235 56.7816 26.9292C57.1491 27.035 57.4845 27.1726 57.7876 27.3421C58.0989 27.5036 58.3458 27.7208 58.5285 27.9936C58.7192 28.2666 58.8135 28.623 58.8114 29.063C58.8094 29.471 58.6956 29.8505 58.4699 30.2014C58.2442 30.5443 57.8989 30.8226 57.4338 31.0364C56.9768 31.2422 56.3884 31.3434 55.6684 31.3399ZM62.3703 31.3002L62.407 23.6683L59.455 23.654L59.4587 22.8861L66.2507 22.9188L66.247 23.6868L63.295 23.6725L63.2582 31.3045L62.3703 31.3002Z" fill="white"/>
<path d="M133.185 25.8023L102.111 25.7014C102.005 25.7076 101.898 25.6855 101.805 25.6377C101.711 25.5898 101.633 25.5181 101.579 25.4305C101.526 25.343 101.5 25.2431 101.504 25.1422C101.507 25.0413 101.54 24.9433 101.6 24.8594C101.6 24.7626 101.743 24.7529 101.845 24.7529L151.8 24.8538C152.818 24.8765 153.82 24.6237 154.691 24.1251C155.561 23.6266 156.263 22.903 156.714 22.0397C157.164 21.1764 157.344 20.2093 157.234 19.2522C157.123 18.2951 156.725 17.3879 156.088 16.6375C155.45 15.8871 154.599 15.3247 153.635 15.0165C152.671 14.7083 151.634 14.6671 150.647 14.8979C149.659 15.1286 148.761 15.6217 148.06 16.319C147.358 17.0162 146.881 17.8887 146.686 18.8337C146.626 19.1536 146.589 19.4769 146.574 19.8015C146.574 20.1016 146.379 20.3145 146.052 20.2951C145.982 20.2907 145.914 20.2724 145.852 20.2415C145.79 20.2106 145.736 20.1678 145.693 20.1158C145.649 20.0639 145.618 20.0039 145.601 19.9398C145.583 19.8756 145.58 19.8088 145.592 19.7435C145.662 18.2847 146.291 16.9001 147.362 15.849C148.434 14.798 149.873 14.1526 151.411 14.0339C152.949 13.9152 154.48 14.3313 155.718 15.2041C156.955 16.077 157.813 17.3468 158.132 18.7756C158.444 20.3167 158.099 21.9121 157.171 23.2127C156.243 24.5133 154.808 25.4131 153.181 25.7152C152.628 25.8088 152.066 25.8542 151.504 25.8507L133.185 25.8023Z" fill="white"/>
<path d="M133.523 26.5089C139.598 26.5089 145.663 26.5089 151.739 26.5089C153.228 26.5059 154.68 26.071 155.9 25.2628C157.12 24.4546 158.049 23.312 158.561 21.9889C158.925 21.0233 159.052 19.9921 158.933 18.9732C158.814 17.9543 158.453 16.9742 157.876 16.1067C157.299 15.2392 156.521 14.5068 155.602 13.9649C154.682 13.423 153.645 13.0855 152.567 12.978C152.342 12.978 152.107 12.978 151.872 12.9199C151.637 12.8619 151.299 12.7748 151.309 12.436C151.32 12.0972 151.555 12.0005 151.882 12.0005C153.677 11.9814 155.423 12.5604 156.812 13.6362C157.843 14.3767 158.669 15.3433 159.218 16.4527C159.766 17.5621 160.022 18.7811 159.962 20.0048C159.888 21.839 159.127 23.5885 157.815 24.9412C156.504 26.2938 154.728 27.1616 152.803 27.3896C152.351 27.4366 151.897 27.4592 151.442 27.4574L95.2126 27.4141C95.107 27.426 95 27.4094 94.904 27.3661C94.808 27.3228 94.727 27.2547 94.6702 27.1696C94.6135 27.0845 94.5834 26.9859 94.5834 26.8853C94.5835 26.7847 94.6137 26.6861 94.6705 26.6011C94.6909 26.5588 94.7242 26.5233 94.7661 26.4992C94.8081 26.475 94.8567 26.4633 94.9057 26.4656L133.523 26.5089Z" fill="white"/>
<path d="M133.482 29.2673H103.012C102.398 29.2673 102.224 29.0447 102.388 28.4833C102.4 28.4262 102.434 28.3751 102.483 28.3395C102.531 28.3039 102.592 28.2863 102.654 28.2898H103.155C115.429 28.2898 139.424 28.2898 151.729 28.2898C153.461 28.3485 155.17 27.908 156.632 27.0265C158.093 26.1449 159.237 24.8641 159.911 23.3536C160.612 22.0029 160.907 20.4961 160.764 18.9976C160.622 17.4991 160.047 16.0664 159.103 14.8557C159.011 14.7105 158.889 14.5847 158.786 14.4492C158.74 14.4016 158.705 14.3455 158.683 14.2843C158.661 14.2232 158.653 14.1584 158.659 14.0941C158.665 14.0298 158.685 13.9674 158.718 13.9108C158.751 13.8543 158.796 13.8048 158.85 13.7656C158.904 13.7265 158.967 13.6984 159.033 13.6833C159.099 13.6682 159.168 13.6663 159.235 13.6778C159.302 13.6893 159.366 13.7139 159.423 13.7501C159.479 13.7862 159.527 13.8331 159.564 13.8878C160.086 14.4926 160.523 15.1597 160.863 15.872C161.502 17.2031 161.809 18.6559 161.758 20.1174C161.707 21.5789 161.301 23.0096 160.571 24.2983C159.84 25.5869 158.806 26.6987 157.547 27.5471C156.288 28.3955 154.84 28.9577 153.314 29.1899C152.728 29.269 152.137 29.3046 151.545 29.2964L133.482 29.2673Z" fill="white"/>
<path d="M133.655 30.0319H151.719C153.553 30.0676 155.366 29.652 156.979 28.8257C158.593 27.9995 159.952 26.791 160.924 25.3184C162.007 23.7949 162.597 22.0054 162.622 20.1693C162.612 20.0534 162.612 19.9368 162.622 19.8209C162.622 19.5305 162.806 19.3079 163.144 19.3273C163.481 19.3466 163.604 19.5692 163.614 19.8693C163.653 20.5583 163.616 21.2493 163.501 21.9308C163.029 24.2232 161.812 26.3189 160.021 27.9256C158.23 29.5323 155.953 30.5698 153.509 30.8933C152.949 30.9673 152.385 31.0029 151.821 30.9998H119.316C118.722 30.9998 118.753 30.9998 118.722 30.4772C118.692 29.9545 119.019 30.0416 119.336 30.0416L133.655 30.0319Z" fill="white"/>
<path d="M116.452 30.9708H114.232C114.113 30.9708 113.998 30.9259 113.914 30.846C113.829 30.7662 113.782 30.6579 113.782 30.5449C113.782 30.432 113.829 30.3236 113.914 30.2438C113.998 30.1639 114.113 30.119 114.232 30.119H116.452C116.571 30.119 116.685 30.1639 116.77 30.2438C116.854 30.3236 116.902 30.432 116.902 30.5449C116.902 30.6579 116.854 30.7662 116.77 30.846C116.685 30.9259 116.571 30.9708 116.452 30.9708Z" fill="white"/>
<path d="M100.669 29.1899H98.4397C98.323 29.1899 98.2112 29.146 98.1287 29.068C98.0462 28.9899 97.9999 28.8841 97.9999 28.7737C97.9998 28.6624 98.0458 28.5555 98.128 28.4759C98.2102 28.3964 98.3221 28.3504 98.4397 28.3478H100.669C100.787 28.3504 100.899 28.3964 100.981 28.4759C101.063 28.5555 101.109 28.6624 101.109 28.7737C101.109 28.8841 101.063 28.9899 100.98 29.068C100.898 29.146 100.786 29.1899 100.669 29.1899Z" fill="white"/>
<path d="M92.6696 27.409H90.4398C90.3232 27.409 90.2113 27.3652 90.1288 27.2871C90.0463 27.2091 90 27.1032 90 26.9928C90 26.8815 90.046 26.7747 90.1282 26.6951C90.2104 26.6155 90.3222 26.5695 90.4398 26.567H92.6696C92.7871 26.5695 92.899 26.6155 92.9812 26.6951C93.0634 26.7747 93.1094 26.8815 93.1094 26.9928C93.1094 27.1032 93.063 27.2091 92.9806 27.2871C92.8981 27.3652 92.7862 27.409 92.6696 27.409Z" fill="white"/>
</svg>
