<svg width="142" height="50" viewBox="0 0 142 50" fill="none" xmlns="http://www.w3.org/2000/svg">
<path d="M70.8027 0.81966C53.4842 1.28975 36.3039 1.47369 19.1433 2.31168C11.817 2.67957 6.66296 7.64615 3.16766 14.023C-5.69895 30.2717 5.4781 49.8519 23.6853 49.9745C40.2929 50.0767 56.9202 49.811 73.5278 49.7905C88.2594 49.7905 102.991 49.9336 117.723 49.9541C128.88 49.9541 138.438 42.1669 140.57 31.4367C142.96 19.4392 137.49 8.15711 126.945 3.47667C125.404 2.78176 123.647 2.29124 121.968 2.22992C104.867 1.69852 87.7658 1.28974 70.8027 0.840092V0.81966ZM136.72 25.5095C136.404 37.0369 128.998 43.3115 119.362 43.6181C110.377 43.9042 102.833 33.317 103.011 25.5504C103.228 15.9851 110.554 7.95273 119.5 7.95273C129.196 7.95273 136.739 15.6376 136.72 25.5299V25.5095Z" fill="white"/>
</svg>
