<svg width="142" height="50" viewBox="0 0 142 50" fill="none" xmlns="http://www.w3.org/2000/svg">
<path d="M71.5703 0.408527C54.2517 0.878615 37.0715 1.06256 19.9109 1.90054C12.5846 2.26844 7.43054 7.23502 3.93523 13.6119C-4.93138 29.8606 6.24567 49.4407 24.4528 49.5634C41.0605 49.6656 57.6878 49.3999 74.2954 49.3794C89.027 49.3794 103.759 49.5225 118.49 49.5429C129.648 49.5429 139.205 41.7558 141.338 31.0255C143.727 19.0281 138.257 7.74598 127.712 3.06554C126.172 2.37063 124.414 1.8801 122.736 1.81879C105.635 1.28738 88.5333 0.878608 71.5703 0.428959V0.408527ZM137.487 25.0984C137.171 36.6257 129.766 42.9004 120.129 43.207C111.144 43.4931 103.601 32.9059 103.778 25.1392C103.996 15.574 111.322 7.5416 120.267 7.5416C129.963 7.5416 137.507 15.2265 137.487 25.1188V25.0984Z" fill="#FDFCF5"/>
</svg>
