<svg width="142" height="50" viewBox="0 0 142 50" fill="none" xmlns="http://www.w3.org/2000/svg">
<path d="M71.2775 0.585312C53.7332 1.07608 36.5446 1.38281 19.3757 2.13941C12.2434 2.44614 7.32388 7.23109 3.80713 13.2021C-5.53796 29.0088 5.4272 49.6618 23.3271 49.764C55.1755 49.9481 87.0238 49.8458 118.872 49.764C129.739 49.7436 139.538 40.9507 141.138 30.1539C142.976 17.7621 136.693 6.4336 125.846 2.67107C124.859 2.32344 123.772 2.11895 122.725 2.07806C105.457 1.56684 88.1895 1.07608 71.2775 0.605766V0.585312ZM71.1392 44.8155C55.3335 44.8155 39.5476 44.8155 23.742 44.8155C22.28 44.8155 20.7587 45.02 19.3559 44.6928C10.4257 42.6275 4.06397 33.1598 5.13085 23.7126C6.33603 13.018 14.792 5.7179 25.8362 5.77924C33.6205 5.82014 41.385 5.82013 49.1693 5.79969C71.5146 5.79969 93.8598 5.61565 116.205 5.88148C120.058 5.92238 124.207 7.21064 127.664 9.03056C135.389 13.1407 138.57 22.2608 136.258 31.2172C134.52 38.0266 126.538 45.2654 118.279 44.9586C102.592 44.3656 86.846 44.7951 71.1392 44.7951V44.8155Z" fill="white"/>
<path d="M41.8193 24.7027C41.7798 15.1737 34.1535 7.50547 24.7294 7.48502C15.9968 7.48502 8.39033 15.6235 8.42984 25.0094C8.46935 34.1499 16.7673 43.5153 24.848 42.9428C35.7736 42.1657 41.6415 34.8861 41.7995 24.7027H41.8193ZM24.6504 37.9738C16.8859 37.9329 11.8083 32.9025 11.7885 25.2139C11.7688 17.8524 17.5774 11.5134 24.275 11.5543C31.6641 11.5952 37.532 17.4026 37.5122 24.6618C37.4925 32.3913 32.0593 38.0147 24.6306 37.9942L24.6504 37.9738Z" fill="white"/>
</svg>
