<svg width="142" height="50" viewBox="0 0 142 50" fill="none" xmlns="http://www.w3.org/2000/svg">
<path d="M71.316 0.343124C53.7718 0.833889 36.5831 1.14062 19.4143 1.89722C12.282 2.20395 7.36246 6.9889 3.8457 12.9599C-5.49939 28.7666 5.46578 49.4196 23.3657 49.5219C55.214 49.7059 87.0624 49.6037 118.911 49.5219C129.777 49.5014 139.577 40.7085 141.177 29.9117C143.014 17.5199 136.732 6.19141 125.885 2.42888C124.897 2.08125 123.811 1.87677 122.763 1.83587C105.496 1.32466 88.2281 0.833895 71.316 0.363579V0.343124ZM71.1777 44.5733C55.3721 44.5733 39.5862 44.5733 23.7806 44.5733C22.3185 44.5733 20.7973 44.7778 19.3945 44.4506C10.4643 42.3853 4.10254 32.9177 5.16942 23.4704C6.3746 12.7758 14.8306 5.47571 25.8748 5.53706C33.6591 5.57795 41.4236 5.57795 49.2079 5.5575C71.5531 5.5575 93.8983 5.37347 116.244 5.6393C120.096 5.68019 124.245 6.96845 127.703 8.78837C135.428 12.8985 138.609 22.0186 136.297 30.975C134.558 37.7844 126.577 45.0232 118.318 44.7165C102.631 44.1235 86.8846 44.5529 71.1777 44.5529V44.5733Z" fill="#FDFCF5"/>
<path d="M41.3642 24.3702C41.3247 14.8411 33.6984 7.17295 24.2743 7.1525C15.5417 7.1525 7.93525 15.291 7.97476 24.6769C8.01428 33.8174 16.3122 43.1828 24.3929 42.6103C35.3185 41.8332 41.1864 34.5535 41.3444 24.3702H41.3642ZM24.1953 37.6413C16.4308 37.6004 11.3532 32.57 11.3335 24.8814C11.3137 17.5199 17.1223 11.1809 23.8199 11.2218C31.2091 11.2627 37.0769 17.07 37.0572 24.3293C37.0374 32.0588 31.6042 37.6822 24.1755 37.6617L24.1953 37.6413Z" fill="#FDFCF5"/>
</svg>
