<svg width="95" height="119" viewBox="0 0 95 119" fill="none" xmlns="http://www.w3.org/2000/svg">
<path d="M94.8203 3.38226V115.477C94.8203 117.16 93.444 118.536 91.7618 118.536C90.0796 118.536 88.7032 117.16 88.7032 115.477V3.38226C88.7032 1.70007 90.0796 0.32373 91.7618 0.32373C93.444 0.32373 94.8203 1.70007 94.8203 3.38226Z" fill="white"/>
<path d="M10.5583 19.1338L78.6106 9.49942C79.5282 9.34649 80.4457 9.65235 81.0574 10.2641C81.6691 10.8758 82.1279 11.6404 82.1279 12.558V59.9652C82.1279 60.8827 81.6691 61.6474 81.0574 62.2591C80.4457 62.7179 79.834 63.0237 79.0694 63.0237C78.9165 63.0237 78.7635 63.0237 78.6106 63.0237L10.5583 53.3893C4.59416 52.4718 0.00635713 47.2723 0.00635713 41.3081V31.215C0.00635713 25.2509 4.59416 20.0514 10.5583 19.1338ZM27.9919 22.957V49.872L46.1902 52.4718V20.3572L27.9919 22.957ZM76.0109 16.0753L52.3072 19.4396V53.0835L76.0109 56.4479V16.0753ZM6.12342 41.3081C6.12342 44.3667 8.41732 46.9664 11.3229 47.4252L21.7219 48.9545V23.7216L11.3229 25.2509C8.26439 25.7096 6.12342 28.3094 6.12342 31.3679V41.3081Z" fill="white"/>
</svg>
