<svg xmlns="http://www.w3.org/2000/svg" width="49" height="53" fill="none" viewBox="0 0 49 53">
  <path fill="#000" d="M30.852 27.026v13.177c.668 0 1.337.245 1.86.735l1.149 1.076a.907.907 0 0 0 1.241 0l1.278-1.198a2.723 2.723 0 0 1 3.493-.188l.053.038V10.692L35.7 14.92l-1.285-1.285 4.227-4.225h-5.976V7.594h5.976L34.416 3.37l1.285-1.285 4.225 4.226V.335h1.815v5.976l4.225-4.226L47.25 3.37l-4.227 4.224H49V9.41h-5.976l4.227 4.225-1.285 1.285-4.225-4.227v27.754h5.444v14.519H0v-14.52h5.444v1.815h-3.63v1.993h3.327l2.17-1.626a2.722 2.722 0 0 1 3.494.188l1.278 1.198a.907.907 0 0 0 1.241 0l1.15-1.076a2.722 2.722 0 0 1 3.72 0l1.148 1.076a.907.907 0 0 0 1.242 0l1.148-1.076a2.722 2.722 0 0 1 3.72 0l1.15 1.076a.907.907 0 0 0 1.24 0l1.15-1.076.045-.042v-13.87l-4.225 4.226-1.285-1.284 4.227-4.225h-5.976v-1.815h5.976l-4.227-4.225 1.285-1.285 4.225 4.227v-5.976h1.815v5.976l4.225-4.227 1.285 1.285-4.227 4.225h5.976v1.815h-5.976l4.227 4.225-1.285 1.284-4.225-4.226ZM41.74 40.26v1.766l.303.227h3.326V40.26h-3.63ZM1.815 44.07v7.081H45.37V44.07h-3.932l-2.654-1.99a.907.907 0 0 0-1.165.064l-1.277 1.196a2.722 2.722 0 0 1-3.72 0l-1.15-1.076a.907.907 0 0 0-1.24 0l-1.15 1.076a2.722 2.722 0 0 1-3.72 0l-1.149-1.076a.907.907 0 0 0-1.241 0l-1.149 1.076a2.722 2.722 0 0 1-3.72 0l-1.149-1.076a.907.907 0 0 0-1.241 0l-1.15 1.076a2.722 2.722 0 0 1-3.72 0l-1.277-1.198A.908.908 0 0 0 8.4 42.08l-2.653 1.989H1.815ZM9.98 23.928a8.167 8.167 0 1 1 0-16.334 8.167 8.167 0 0 1 0 16.334Zm0-1.815a6.352 6.352 0 1 0 0-12.704 6.352 6.352 0 0 0 0 12.704Z"/>
  <path fill="#000" fill-rule="evenodd" d="M47.185 47.878v1.815h-5.747l-2.654-1.991a.907.907 0 0 0-1.165.063l-1.277 1.198a2.722 2.722 0 0 1-3.72 0l-1.15-1.078a.907.907 0 0 0-1.24 0l-1.15 1.076a2.722 2.722 0 0 1-3.72 0l-1.149-1.076a.907.907 0 0 0-1.241 0l-1.149 1.076a2.722 2.722 0 0 1-3.72 0l-1.149-1.076a.907.907 0 0 0-1.241 0l-1.15 1.076a2.722 2.722 0 0 1-3.72 0l-1.277-1.197a.908.908 0 0 0-1.165-.062l-2.653 1.99H0v-1.814h5.141l2.173-1.628a2.723 2.723 0 0 1 3.493.19l1.278 1.197a.907.907 0 0 0 1.241 0l1.149-1.077a2.722 2.722 0 0 1 3.72 0l1.15 1.076a.907.907 0 0 0 1.24 0l1.15-1.076a2.723 2.723 0 0 1 3.72 0l1.148 1.076a.907.907 0 0 0 1.242 0l1.149-1.076a2.722 2.722 0 0 1 3.72 0l1.149 1.076a.907.907 0 0 0 1.241 0l1.278-1.197a2.723 2.723 0 0 1 3.493-.189l2.17 1.628h5.14Z" clip-rule="evenodd"/>
</svg>
