<svg width="88" height="40" viewBox="0 0 88 40" fill="none" xmlns="http://www.w3.org/2000/svg">
<g id="Group 2">
<path id="Vector" d="M12.9541 32.1991H0.906827C0.881434 31.7899 0.836292 31.4118 0.836292 31.0365C0.833471 22.8362 0.844756 14.636 0.813721 6.43287C0.813721 5.7133 1.01686 5.26745 1.66013 4.99938C1.77863 4.95141 1.88302 4.86957 1.99588 4.80185C4.06677 3.53485 6.00223 1.77966 8.25087 1.14193C10.4685 0.512658 13.0049 1.01777 15.4031 1.01777C38.7387 1.01777 62.0771 1.01777 85.4127 1.01777H86.8686C86.8686 3.63361 86.8488 6.17891 86.8714 8.72138C86.9278 14.6839 87.0124 20.6436 87.0576 26.6062C87.0576 26.8489 86.8488 27.1931 86.6344 27.3258C84.1572 28.8637 81.6659 30.3733 79.169 31.8774C78.9602 32.0044 78.6922 32.1003 78.4524 32.1031C74.7253 32.1144 70.9983 32.1059 67.2713 32.0975C67.181 32.0975 67.0907 32.0495 66.9355 32.0044V5.29849H68.1092C71.4808 5.29849 74.8523 5.31543 78.221 5.28156C78.7091 5.27592 79.2508 5.13483 79.6684 4.88933C81.4148 3.86218 83.1246 2.77295 85.0996 1.55392C84.5353 1.52852 84.2616 1.50594 83.9879 1.50594C59.0639 1.50594 34.137 1.5003 9.21296 1.52288C8.66844 1.52288 8.06184 1.70065 7.59067 1.97437C5.83295 2.99587 4.11755 4.09357 2.17927 5.29003C2.67865 5.32389 2.94668 5.36057 3.21471 5.36057C6.16305 5.3634 9.11422 5.38879 12.0626 5.34647C12.8441 5.33518 13.0529 5.58914 13.0529 6.34257C13.0303 14.6416 13.0387 22.9378 13.0359 31.2368C13.0359 31.5472 12.9851 31.8604 12.9569 32.1991H12.9541ZM79.0223 31.3751C81.3669 29.9501 83.5309 28.6012 85.7344 27.3229C86.3833 26.9476 86.6062 26.5272 86.5949 25.7822C86.4961 18.6909 86.434 11.5997 86.3635 4.50838C86.3551 3.53202 86.3635 2.55567 86.3635 1.38178C83.971 2.85196 81.8606 4.17258 79.7192 5.44241C79.169 5.76974 79.0082 6.14505 79.011 6.76303C79.0336 13.0473 79.0251 19.3315 79.0251 25.6185C79.0251 27.464 79.0251 29.3067 79.0251 31.3751H79.0223ZM77.1574 5.85157V31.5388H78.475V5.85157H77.1574ZM72.6432 31.5613V5.84875H71.3143V31.5613H72.6432ZM69.3676 5.84875V31.5613H70.6964V5.84875H69.3676ZM67.4236 5.84875V31.5613H68.7525V5.84875H67.4236ZM76.4379 31.5585V5.85157H75.205V31.5585H76.4379ZM73.261 5.85157V31.5585H74.494V5.85157H73.261ZM11.2077 5.98138V31.5867H12.4209V5.98138H11.2077ZM2.70122 31.6178V6.00678H1.47674V31.6178H2.70122ZM4.63669 31.6206V6.01524H3.42914V31.6206H4.63669ZM6.58344 31.6234V6.01524H5.37307V31.6234H6.58344ZM8.51326 31.598V6.00395H7.30289V31.5952H8.51326V31.598ZM9.25528 5.9842V31.5867H10.4487V5.9842H9.25528Z" fill="#EAE8DB"/>
<path id="Loading Paradise..." d="M21.2034 19.3766H21.3174L21.3114 20.0546H19.1574V16.1906H19.6974V19.9586H20.0034C20.4594 19.9586 20.9994 19.9226 21.2034 19.3766ZM22.9377 17.1986C23.7417 17.1986 24.3357 17.7566 24.3357 18.6566C24.3357 19.5566 23.7177 20.1446 22.8897 20.1446C22.0857 20.1446 21.4857 19.5926 21.4857 18.6926C21.4857 17.7926 22.1097 17.1986 22.9377 17.1986ZM22.9197 20.0726C23.4537 20.0726 23.7957 19.5266 23.7957 18.6926C23.7957 17.8406 23.4297 17.2766 22.9077 17.2766C22.3737 17.2766 22.0317 17.8226 22.0317 18.6566C22.0317 19.5086 22.3977 20.0726 22.9197 20.0726ZM27.1939 19.5506H27.2659C27.2659 19.5506 27.1579 19.8746 26.9419 20.0066C26.9419 20.0126 26.9419 20.0126 26.9419 20.0126H26.9359C26.8879 20.0426 26.8339 20.0666 26.7679 20.0666C26.7619 20.0666 26.7559 20.0666 26.7499 20.0666C26.7319 20.0666 26.7199 20.0666 26.7079 20.0666C26.5159 20.0486 26.4559 19.8986 26.4439 19.7966C26.4439 19.7606 26.4379 19.7066 26.4379 19.6646C26.4379 19.6586 26.4319 19.6526 26.4319 19.6466C26.4319 19.6406 26.4319 19.6406 26.4319 19.6346C26.4319 19.6286 26.4319 19.6286 26.4319 19.6226V19.0286C26.4019 19.1426 26.3659 19.2626 26.3119 19.3766C26.0959 19.8506 25.7719 20.0906 25.3459 20.0966C25.3399 20.1026 25.3339 20.1026 25.3339 20.1026C25.1119 20.1026 24.9139 20.0306 24.7819 19.8986C24.6619 19.7786 24.6019 19.6226 24.6019 19.4546C24.6019 19.0286 25.0519 18.6626 26.0179 18.2846L26.4799 18.0986C26.4499 17.3606 26.2399 17.2166 25.8859 17.2166C25.7419 17.2166 25.6219 17.2526 25.5199 17.3306C25.5199 17.3306 25.4719 17.3666 25.4419 17.4926C25.3939 17.7146 25.1119 17.7866 24.9619 17.6186L24.8719 17.5166C25.0939 17.3786 25.5739 17.1326 25.9759 17.1326C26.4139 17.1326 26.9419 17.3126 26.9419 18.1766V19.6226C26.9419 19.6346 26.9419 19.6526 26.9419 19.6646C26.9779 19.9406 27.1939 19.5506 27.1939 19.5506ZM26.3419 19.0646C26.4499 18.7106 26.4799 18.3206 26.4859 18.1826L26.0419 18.3686C25.2079 18.7226 25.0219 18.8846 25.0219 19.2926C25.0219 19.5866 25.2859 19.8206 25.6219 19.8206C25.9459 19.8206 26.1859 19.5686 26.3419 19.0646ZM30.3724 19.5506H30.4504C30.4504 19.5506 30.3424 19.8746 30.1264 20.0066C30.1204 20.0126 30.1204 20.0126 30.1204 20.0126C30.0664 20.0426 30.0124 20.0666 29.9524 20.0666C29.9464 20.0666 29.9344 20.0666 29.9284 20.0666C29.9164 20.0666 29.9044 20.0666 29.8864 20.0666C29.7004 20.0486 29.6344 19.8986 29.6284 19.7966C29.6224 19.7546 29.6164 19.7006 29.6164 19.6646C29.3584 19.9406 29.0404 20.1026 28.6744 20.1026C27.9844 20.1026 27.4684 19.5146 27.4684 18.6806C27.4684 17.7746 28.0924 17.1566 28.8364 17.1566C29.1424 17.1566 29.4064 17.2646 29.6164 17.4506V16.2206C29.5984 16.0706 29.5324 16.0046 29.3224 15.9626V15.8906L29.6164 15.8306L30.1144 15.7346H30.1204V19.5746C30.1204 19.6106 30.1204 19.6346 30.1264 19.6646C30.1624 19.9406 30.3724 19.5506 30.3724 19.5506ZM29.6164 19.5326V17.7866C29.4844 17.4626 29.2084 17.2466 28.8844 17.2466C28.3624 17.2466 28.0084 17.7746 28.0084 18.6266C28.0084 19.4966 28.3564 19.9286 28.8424 19.9286C29.1064 19.9286 29.3824 19.7966 29.6164 19.5326ZM31.2208 16.6406C31.1548 16.6406 31.0888 16.6166 31.0348 16.5626C30.9868 16.5146 30.9628 16.4486 30.9628 16.3826C30.9628 16.3166 30.9868 16.2566 31.0348 16.2026C31.1368 16.1066 31.2988 16.1066 31.4008 16.2026C31.4488 16.2566 31.4728 16.3166 31.4728 16.3826C31.4728 16.4486 31.4488 16.5146 31.4008 16.5626C31.3468 16.6166 31.2808 16.6406 31.2208 16.6406ZM31.7248 19.5506H31.7968C31.7968 19.5506 31.6888 19.8746 31.4728 20.0066C31.4188 20.0426 31.3648 20.0606 31.2988 20.0666C31.2928 20.0666 31.2868 20.0666 31.2748 20.0666C31.2628 20.0666 31.2508 20.0666 31.2388 20.0666C31.0468 20.0486 30.9868 19.8986 30.9748 19.7966C30.9688 19.7666 30.9688 19.7366 30.9688 19.7186V17.6726C30.9628 17.2526 30.7168 17.7086 30.7168 17.7086H30.6448C30.6448 17.7086 30.7528 17.3786 30.9688 17.2466C31.0228 17.2166 31.0768 17.1926 31.1428 17.1926H31.1488C31.1548 17.1926 31.1548 17.1926 31.1608 17.1926C31.1668 17.1926 31.1788 17.1926 31.1848 17.1926C31.2028 17.1926 31.2148 17.1926 31.2268 17.1926C31.4248 17.2286 31.4608 17.4086 31.4668 17.5106C31.4728 17.5466 31.4668 17.5766 31.4668 17.5766V19.5686C31.4668 19.6046 31.4728 19.6346 31.4728 19.6586C31.5088 19.9406 31.7248 19.5506 31.7248 19.5506ZM34.9723 19.5446H35.0443C35.0443 19.5446 34.9423 19.8686 34.7203 20.0066H34.7143C34.7143 20.0066 34.7143 20.0066 34.7143 20.0126C34.6663 20.0366 34.6183 20.0546 34.5643 20.0606L34.5463 20.0666C34.5343 20.0666 34.5283 20.0666 34.5223 20.0666C34.5103 20.0666 34.4923 20.0666 34.4803 20.0606H34.4743C34.4263 20.0546 34.3843 20.0426 34.3543 20.0246C34.2703 19.9766 34.2343 19.8926 34.2223 19.8146C34.2223 19.8146 34.2163 19.8146 34.2163 19.8086C34.2163 19.8026 34.2163 19.7966 34.2163 19.7906C34.2103 19.7606 34.2103 19.7366 34.2103 19.7186V18.1766C34.2103 17.9606 34.2103 17.3186 33.5923 17.3186C33.3223 17.3186 33.0883 17.4866 32.8243 17.7446V20.0126H32.3203V17.6246C32.3203 17.6126 32.3203 17.6006 32.3203 17.5886C32.2843 17.3126 32.0683 17.7026 32.0683 17.7026H31.9963C31.9963 17.7026 32.0983 17.3786 32.3203 17.2406C32.3743 17.2106 32.4283 17.1866 32.4943 17.1866C32.5003 17.1866 32.5063 17.1866 32.5123 17.1866C32.5303 17.1866 32.5423 17.1866 32.5543 17.1866C32.6083 17.1926 32.6503 17.2046 32.6803 17.2226C32.7643 17.2766 32.8003 17.3606 32.8123 17.4326L32.8183 17.4386V17.4446C32.8183 17.4506 32.8183 17.4506 32.8183 17.4566C32.8183 17.4686 32.8243 17.4866 32.8243 17.4986C32.8243 17.5106 32.8243 17.5226 32.8243 17.5346V17.6486C33.1123 17.3606 33.3943 17.1866 33.8143 17.1866C34.2343 17.1866 34.5163 17.3546 34.6423 17.7026L34.6723 17.7986C34.6963 17.9126 34.7143 18.0386 34.7143 18.1886V19.6286C34.7143 19.6406 34.7143 19.6466 34.7203 19.6586C34.7503 19.9406 34.9723 19.5446 34.9723 19.5446ZM37.5227 17.3846C37.4147 17.3846 37.3307 17.4026 37.2587 17.4446C37.2467 17.4506 37.2467 17.4626 37.2527 17.4686C37.4447 17.6366 37.5587 17.8826 37.5587 18.1646C37.5587 18.7406 37.0727 19.1426 36.4247 19.1426C36.2507 19.1426 36.0887 19.1126 35.9387 19.0586C35.9327 19.0526 35.9267 19.0526 35.9267 19.0586L35.8127 19.1306C35.6927 19.2146 35.6627 19.2926 35.6627 19.3706C35.6627 19.4846 35.7467 19.5626 36.0347 19.5746L36.9107 19.6286C37.5047 19.6646 37.8347 19.8926 37.8347 20.3306C37.8347 20.9126 37.3007 21.3446 36.4727 21.3446C35.7947 21.3446 35.3327 21.0506 35.3327 20.5826C35.3327 20.5766 35.3327 20.5646 35.3327 20.5586C35.3327 20.5226 35.3387 20.4806 35.3447 20.4386C35.3507 20.4386 35.3507 20.4326 35.3507 20.4326C35.3687 20.3666 35.4047 20.2946 35.4767 20.2526C35.5067 20.2286 35.5487 20.2166 35.5967 20.2106H35.6027C35.6207 20.2106 35.6987 20.2106 35.7107 20.2106C35.7167 20.2106 35.7227 20.2106 35.7287 20.2106H35.7527C35.7587 20.2106 35.7647 20.2166 35.7767 20.2166C35.7347 20.3306 35.7167 20.4386 35.7167 20.5406C35.7167 20.5766 35.7167 20.6186 35.7227 20.6546C35.7767 21.0206 35.9627 21.2726 36.4727 21.2726C37.1687 21.2726 37.4207 20.9726 37.4207 20.5346C37.4207 20.2466 37.2827 20.0846 36.8147 20.0546L35.9807 20.0006C35.6087 19.9826 35.3567 19.8446 35.3567 19.5686C35.3567 19.3646 35.4887 19.2266 35.7347 19.0766L35.8427 19.0166C35.5187 18.8546 35.3087 18.5546 35.3087 18.1706C35.3087 17.5946 35.7947 17.1926 36.4427 17.1926C36.7187 17.1926 36.9647 17.2586 37.1567 17.3906C37.1627 17.3966 37.1747 17.3966 37.1747 17.3906C37.3127 17.1986 37.5227 17.0246 37.8587 17.0186C37.8707 17.0186 37.8767 17.0306 37.8767 17.0366L37.8707 17.0726C37.8527 17.2526 37.7027 17.3846 37.5227 17.3846ZM36.4367 19.0586C36.8447 19.0586 37.0847 18.7046 37.0847 18.1706C37.0847 17.6426 36.8267 17.2766 36.4307 17.2766C36.0287 17.2766 35.7827 17.6366 35.7827 18.1646C35.7827 18.6986 36.0407 19.0586 36.4367 19.0586ZM40.8137 16.1906C41.8037 16.1906 42.3077 16.5746 42.3077 17.2526C42.3077 17.9786 41.7377 18.4406 40.8137 18.4406C40.6457 18.4406 40.4657 18.4286 40.3517 18.4106V20.0546H39.8117V16.1906H40.8137ZM40.7237 18.3566C41.3957 18.3566 41.7377 17.9666 41.7377 17.3186C41.7377 16.7066 41.4257 16.2806 40.7297 16.2806H40.3517V18.3206C40.4477 18.3446 40.5677 18.3566 40.7237 18.3566ZM44.9713 19.5506H45.0433C45.0433 19.5506 44.9353 19.8746 44.7193 20.0066C44.7193 20.0126 44.7193 20.0126 44.7193 20.0126H44.7133C44.6653 20.0426 44.6113 20.0666 44.5453 20.0666C44.5393 20.0666 44.5333 20.0666 44.5273 20.0666C44.5093 20.0666 44.4973 20.0666 44.4853 20.0666C44.2933 20.0486 44.2333 19.8986 44.2213 19.7966C44.2213 19.7606 44.2153 19.7066 44.2153 19.6646C44.2153 19.6586 44.2093 19.6526 44.2093 19.6466C44.2093 19.6406 44.2093 19.6406 44.2093 19.6346C44.2093 19.6286 44.2093 19.6286 44.2093 19.6226V19.0286C44.1793 19.1426 44.1433 19.2626 44.0893 19.3766C43.8733 19.8506 43.5493 20.0906 43.1233 20.0966C43.1173 20.1026 43.1113 20.1026 43.1113 20.1026C42.8893 20.1026 42.6913 20.0306 42.5593 19.8986C42.4393 19.7786 42.3793 19.6226 42.3793 19.4546C42.3793 19.0286 42.8293 18.6626 43.7953 18.2846L44.2573 18.0986C44.2273 17.3606 44.0173 17.2166 43.6633 17.2166C43.5193 17.2166 43.3993 17.2526 43.2973 17.3306C43.2973 17.3306 43.2493 17.3666 43.2193 17.4926C43.1713 17.7146 42.8893 17.7866 42.7393 17.6186L42.6493 17.5166C42.8713 17.3786 43.3513 17.1326 43.7533 17.1326C44.1913 17.1326 44.7193 17.3126 44.7193 18.1766V19.6226C44.7193 19.6346 44.7193 19.6526 44.7193 19.6646C44.7553 19.9406 44.9713 19.5506 44.9713 19.5506ZM44.1193 19.0646C44.2273 18.7106 44.2573 18.3206 44.2633 18.1826L43.8193 18.3686C42.9853 18.7226 42.7993 18.8846 42.7993 19.2926C42.7993 19.5866 43.0633 19.8206 43.3993 19.8206C43.7233 19.8206 43.9633 19.5686 44.1193 19.0646ZM46.807 17.2466C46.903 17.2466 46.993 17.2646 47.059 17.2766L47.041 17.3306C46.975 17.5046 46.807 17.6066 46.621 17.6066H46.615C46.285 17.6126 46.237 17.7146 46.099 17.8706C46.087 17.8826 46.081 17.8946 46.069 17.9066C46.051 17.9306 46.027 17.9666 46.009 17.9966C45.997 18.0086 45.991 18.0266 45.979 18.0446C45.973 18.0626 45.961 18.0746 45.955 18.0926C45.955 18.0926 45.955 18.0926 45.955 18.0986V20.0306V20.0666H45.451V17.7086C45.451 17.6846 45.451 17.6666 45.445 17.6486C45.409 17.3666 45.199 17.7566 45.199 17.7566H45.127C45.127 17.7566 45.229 17.4386 45.445 17.3006H45.451V17.2946C45.505 17.2646 45.565 17.2406 45.625 17.2406C45.631 17.2406 45.637 17.2406 45.643 17.2406C45.649 17.2406 45.655 17.2406 45.661 17.2406C45.865 17.2466 45.925 17.3966 45.943 17.5046V17.9426C46.141 17.5106 46.435 17.2466 46.807 17.2466ZM49.6588 19.5506H49.7308C49.7308 19.5506 49.6228 19.8746 49.4068 20.0066C49.4068 20.0126 49.4068 20.0126 49.4068 20.0126H49.4008C49.3528 20.0426 49.2988 20.0666 49.2328 20.0666C49.2268 20.0666 49.2208 20.0666 49.2148 20.0666C49.1968 20.0666 49.1848 20.0666 49.1728 20.0666C48.9808 20.0486 48.9208 19.8986 48.9088 19.7966C48.9088 19.7606 48.9028 19.7066 48.9028 19.6646C48.9028 19.6586 48.8968 19.6526 48.8968 19.6466C48.8968 19.6406 48.8968 19.6406 48.8968 19.6346C48.8968 19.6286 48.8968 19.6286 48.8968 19.6226V19.0286C48.8668 19.1426 48.8308 19.2626 48.7768 19.3766C48.5608 19.8506 48.2368 20.0906 47.8108 20.0966C47.8048 20.1026 47.7988 20.1026 47.7988 20.1026C47.5768 20.1026 47.3788 20.0306 47.2468 19.8986C47.1268 19.7786 47.0668 19.6226 47.0668 19.4546C47.0668 19.0286 47.5168 18.6626 48.4828 18.2846L48.9448 18.0986C48.9148 17.3606 48.7048 17.2166 48.3508 17.2166C48.2068 17.2166 48.0868 17.2526 47.9848 17.3306C47.9848 17.3306 47.9368 17.3666 47.9068 17.4926C47.8588 17.7146 47.5768 17.7866 47.4268 17.6186L47.3368 17.5166C47.5588 17.3786 48.0388 17.1326 48.4408 17.1326C48.8788 17.1326 49.4068 17.3126 49.4068 18.1766V19.6226C49.4068 19.6346 49.4068 19.6526 49.4068 19.6646C49.4428 19.9406 49.6588 19.5506 49.6588 19.5506ZM48.8068 19.0646C48.9148 18.7106 48.9448 18.3206 48.9508 18.1826L48.5068 18.3686C47.6728 18.7226 47.4868 18.8846 47.4868 19.2926C47.4868 19.5866 47.7508 19.8206 48.0868 19.8206C48.4108 19.8206 48.6508 19.5686 48.8068 19.0646ZM52.8373 19.5506H52.9153C52.9153 19.5506 52.8073 19.8746 52.5913 20.0066C52.5853 20.0126 52.5853 20.0126 52.5853 20.0126C52.5313 20.0426 52.4773 20.0666 52.4173 20.0666C52.4113 20.0666 52.3993 20.0666 52.3933 20.0666C52.3813 20.0666 52.3693 20.0666 52.3513 20.0666C52.1653 20.0486 52.0993 19.8986 52.0933 19.7966C52.0873 19.7546 52.0813 19.7006 52.0813 19.6646C51.8233 19.9406 51.5053 20.1026 51.1393 20.1026C50.4493 20.1026 49.9333 19.5146 49.9333 18.6806C49.9333 17.7746 50.5573 17.1566 51.3013 17.1566C51.6073 17.1566 51.8713 17.2646 52.0813 17.4506V16.2206C52.0633 16.0706 51.9973 16.0046 51.7873 15.9626V15.8906L52.0813 15.8306L52.5793 15.7346H52.5853V19.5746C52.5853 19.6106 52.5853 19.6346 52.5913 19.6646C52.6273 19.9406 52.8373 19.5506 52.8373 19.5506ZM52.0813 19.5326V17.7866C51.9493 17.4626 51.6733 17.2466 51.3493 17.2466C50.8273 17.2466 50.4733 17.7746 50.4733 18.6266C50.4733 19.4966 50.8213 19.9286 51.3073 19.9286C51.5713 19.9286 51.8473 19.7966 52.0813 19.5326ZM53.6856 16.6406C53.6196 16.6406 53.5536 16.6166 53.4996 16.5626C53.4516 16.5146 53.4276 16.4486 53.4276 16.3826C53.4276 16.3166 53.4516 16.2566 53.4996 16.2026C53.6016 16.1066 53.7636 16.1066 53.8656 16.2026C53.9136 16.2566 53.9376 16.3166 53.9376 16.3826C53.9376 16.4486 53.9136 16.5146 53.8656 16.5626C53.8116 16.6166 53.7456 16.6406 53.6856 16.6406ZM54.1896 19.5506H54.2616C54.2616 19.5506 54.1536 19.8746 53.9376 20.0066C53.8836 20.0426 53.8296 20.0606 53.7636 20.0666C53.7576 20.0666 53.7516 20.0666 53.7396 20.0666C53.7276 20.0666 53.7156 20.0666 53.7036 20.0666C53.5116 20.0486 53.4516 19.8986 53.4396 19.7966C53.4336 19.7666 53.4336 19.7366 53.4336 19.7186V17.6726C53.4276 17.2526 53.1816 17.7086 53.1816 17.7086H53.1096C53.1096 17.7086 53.2176 17.3786 53.4336 17.2466C53.4876 17.2166 53.5416 17.1926 53.6076 17.1926H53.6136C53.6196 17.1926 53.6196 17.1926 53.6256 17.1926C53.6316 17.1926 53.6436 17.1926 53.6496 17.1926C53.6676 17.1926 53.6796 17.1926 53.6916 17.1926C53.8896 17.2286 53.9256 17.4086 53.9316 17.5106C53.9376 17.5466 53.9316 17.5766 53.9316 17.5766V19.5686C53.9316 19.6046 53.9376 19.6346 53.9376 19.6586C53.9736 19.9406 54.1896 19.5506 54.1896 19.5506ZM55.8393 18.4286C56.1753 18.5666 56.6553 18.7646 56.6553 19.2926C56.6553 19.7726 56.2533 20.1326 55.5753 20.1326C55.2153 20.1326 54.8073 20.0306 54.5733 19.8746C54.5913 19.5626 55.0053 19.4486 55.1853 19.7126C55.3173 19.9106 55.4673 20.0546 55.6293 20.0546C56.0433 20.0546 56.3193 19.8326 56.3193 19.5146C56.3193 19.1786 55.9953 19.0406 55.6593 18.9026L55.4433 18.8126C55.0953 18.6626 54.6213 18.4646 54.6213 17.9606C54.6213 17.5166 55.0053 17.1866 55.6113 17.1866C55.9893 17.1866 56.3433 17.3006 56.5293 17.4086C56.5053 17.6966 56.1333 17.8046 55.9653 17.5646C55.8393 17.3906 55.7073 17.2586 55.5633 17.2586C55.1733 17.2586 54.9633 17.4806 54.9633 17.7446C54.9633 18.0746 55.3293 18.2126 55.6293 18.3386L55.8393 18.4286ZM59.791 18.9146L59.833 18.9326C59.653 19.2986 59.401 19.6466 59.083 19.8746C58.843 20.0426 58.579 20.1446 58.273 20.1446C57.457 20.1446 56.935 19.5626 56.935 18.7766C56.935 17.9246 57.679 17.1866 58.417 17.1866C58.777 17.1866 59.011 17.3006 59.155 17.4446V17.4386C59.155 17.4386 59.437 17.6906 59.377 18.1766H59.113H57.475C57.439 18.3086 57.433 18.4106 57.439 18.5666C57.439 19.3826 57.823 19.8146 58.549 19.8146C59.131 19.8146 59.509 19.4726 59.791 18.9146ZM58.435 17.2766C57.973 17.2766 57.727 17.5346 57.493 18.0866H58.927C58.987 17.6786 58.855 17.4686 58.741 17.3786C58.735 17.3726 58.735 17.3726 58.729 17.3666C58.705 17.3486 58.675 17.3306 58.639 17.3126C58.621 17.3006 58.603 17.3006 58.603 17.3006C58.555 17.2826 58.501 17.2766 58.435 17.2766ZM60.2668 19.5746C60.3688 19.6766 60.3688 19.8506 60.2668 19.9526C60.1648 20.0546 59.9968 20.0546 59.8948 19.9526C59.7868 19.8506 59.7868 19.6766 59.8888 19.5746C59.9968 19.4726 60.1648 19.4726 60.2668 19.5746ZM61.0051 19.5746C61.1071 19.6766 61.1071 19.8506 61.0051 19.9526C60.9031 20.0546 60.7351 20.0546 60.6331 19.9526C60.5251 19.8506 60.5251 19.6766 60.6271 19.5746C60.7351 19.4726 60.9031 19.4726 61.0051 19.5746ZM61.7433 19.5746C61.8453 19.6766 61.8453 19.8506 61.7433 19.9526C61.6413 20.0546 61.4733 20.0546 61.3713 19.9526C61.2633 19.8506 61.2633 19.6766 61.3653 19.5746C61.4733 19.4726 61.6413 19.4726 61.7433 19.5746Z" fill="#ECE8DB"/>
</g>
</svg>
