<svg xmlns="http://www.w3.org/2000/svg" width="85" height="32" fill="none" viewBox="0 0 85 32">
  <path fill="#000" d="M12.228 31.159H.538c-.025-.397-.07-.764-.07-1.128-.001-7.958.01-15.916-.02-23.876 0-.699.197-1.131.821-1.391.115-.047.217-.126.326-.192 2.01-1.23 3.888-2.933 6.07-3.552C9.816.41 12.278.9 14.604.9h69.353c0 2.538-.02 5.008.003 7.476.054 5.786.137 11.57.18 17.355 0 .236-.202.57-.41.699a630.115 630.115 0 0 1-7.245 4.417 1.452 1.452 0 0 1-.695.219c-3.617.01-7.234.003-10.85-.006-.088 0-.176-.046-.327-.09V5.054h1.14c3.271 0 6.543.016 9.812-.017.474-.005 1-.142 1.405-.38 1.694-.997 3.354-2.054 5.27-3.237-.547-.025-.813-.047-1.079-.047-24.187 0-48.376-.005-72.563.017-.529 0-1.117.172-1.575.438-1.705.991-3.37 2.057-5.25 3.218.484.033.744.068 1.004.068 2.861.003 5.725.027 8.586-.014.758-.01.961.236.961.967-.022 8.054-.014 16.105-.016 24.158 0 .301-.05.605-.077.934h-.003Zm64.115-.8c2.275-1.383 4.375-2.692 6.513-3.932.63-.364.846-.772.835-1.495-.096-6.882-.156-13.763-.224-20.645-.008-.947 0-1.895 0-3.034-2.322 1.427-4.37 2.708-6.448 3.94-.534.318-.69.682-.687 1.282.022 6.098.013 12.197.013 18.298v5.586h-.002Zm-1.81-24.768v24.927h1.278V5.591h-1.278Zm-4.38 24.949V5.588h-1.29V30.54h1.29Zm-3.18-24.952V30.54h1.29V5.588h-1.29Zm-1.886 0V30.54h1.29V5.588h-1.29Zm8.748 24.95V5.59h-1.197v24.946h1.197ZM70.752 5.59v24.946h1.196V5.591h-1.196Zm-60.218.126v24.848h1.177V5.717h-1.178ZM2.279 30.595V5.74H1.09v24.854h1.19Zm1.878.003V5.748H2.985v24.849h1.172Zm1.889.002V5.75H4.871V30.6h1.175Zm1.873-.024V5.738H6.744v24.835H7.92v.003Zm.72-24.857v24.846h1.158V5.719H8.639Z"/>
</svg>
