<svg xmlns="http://www.w3.org/2000/svg" width="66" height="38" fill="none" viewBox="0 0 66 38">
  <path fill="#000" d="M65.641 26.372a.653.653 0 0 1-.653.64h-.013c-7.81-.15-13.178-6.85-15.685-10.833-2.209-3.508-8.855-5.557-12.888-4.916-1.501.236-2.484 1.014-2.708 1.37.102.032.294.073.627.073.528.01.964-.08 1.425-.17.345-.067.704-.137 1.104-.166a.653.653 0 0 1 .557 1.066c-.618.756-.698 1.104-.704 1.204.06.029.227.09.618.09.038-.004.073 0 .112 0 2.554 0 5.98.06 6.86 4.378.297 1.46-.16 3.029-1.294 4.412-1.674 2.048-4.555 3.37-7.346 3.37a.652.652 0 0 1-.653-.653c0-.361.291-.653.653-.653 2.414 0 4.9-1.136 6.335-2.89.877-1.076 1.242-2.257 1.024-3.326-.63-3.092-2.75-3.336-5.672-3.336h-.02c-.937 0-1.545-.275-1.805-.822-.198-.417-.134-.871.048-1.31a6.987 6.987 0 0 1-1.254.116c-1.633-.01-1.934-.759-1.966-1.204-.1-1.296 1.953-2.535 3.851-2.836 3.348-.532 8.166.576 11.454 2.807-.992-1.572-2.721-3.258-4.805-4.6-3.262-2.096-6.594-2.877-8.909-2.093a.655.655 0 0 1-.419-1.239c1.36-.461 2.955-.49 4.66-.112-1.219-.868-2.947-1.597-5.034-2.103-2.974-.72-6.2-.848-8.217-.327-1.437.372-1.863.727-1.972.849.189.21 1.04.704 3.31 1.002a.649.649 0 0 1 .566.624.652.652 0 0 1-.518.662c-.368.077-.83.141-1.364.215-2.045.282-5.137.71-6.245 2.362-.026.039-.029.074-.026.08.032.045.356.19 1.188-.054a.653.653 0 0 1 .506 1.194c-1.018.58-3.368 2.141-3.166 4.11.058.55.198.752.272.787.365.17 1.53-.63 2.09-1.014.263-.18.516-.356.743-.49a1.92 1.92 0 0 1 .23-.128.653.653 0 0 1 .567 1.175c-.048.025-.1.054-.157.09-.349.271-.829 1.113-.695 1.507.065.186.6.429 2.174.026 1.917-.493 2.74-1.623 3.61-2.82 1.092-1.502 2.222-3.051 5.327-3.051.362 0 .653.291.653.653a.652.652 0 0 1-.653.653c-1.975 0-2.877.73-3.694 1.75 2.254.625 3.934 2.168 4.661 4.341.91 2.715.173 5.782-1.92 8.003-1.748 1.857-5.92 4.635-14.217 2.401-5.262-1.418-7.609-.675-10.092.109-1.47.464-2.987.944-5.09.944a.652.652 0 0 1-.653-.653c0-.362.291-.653.653-.653 1.901 0 3.259-.429 4.696-.883 2.554-.807 5.192-1.643 10.826-.125 7.64 2.058 11.377-.394 12.925-2.036 1.736-1.844 2.379-4.472 1.633-6.694-.637-1.901-2.196-3.207-4.28-3.617-.864 1.165-1.924 2.391-4.065 2.942-.701.18-1.277.256-1.748.256-1.284 0-1.793-.563-1.985-1.124a1.74 1.74 0 0 1-.086-.643c-.688.355-1.393.547-2.007.266-.58-.27-.925-.887-1.021-1.84-.186-1.793.98-3.247 2.154-4.233a1.372 1.372 0 0 1-.438-.387c-.337-.458-.337-1.079-.004-1.575 1.076-1.604 3.281-2.273 5.279-2.64-.807-.382-1.232-.859-1.268-1.429-.086-1.392 2.219-1.988 2.974-2.183 2.244-.58 5.637-.458 8.851.32 2.113.512 5.855 1.742 7.369 4.245.9.39 1.815.883 2.73 1.47 3.474 2.23 5.9 5.191 6.262 7.615.211.256.41.518.58.787 2.365 3.758 7.406 10.084 14.605 10.221a.652.652 0 0 1 .64.666l.007.01Zm-19.757 1.306c1.444-1.482 2.107-3.624 2.024-6.546a.651.651 0 1 0-1.303.035c.07 2.551-.47 4.382-1.655 5.599-1.47 1.507-3.963 2.183-8.093 2.183a.652.652 0 0 0-.652.653c0 .361.29.653.653.653 4.51 0 7.294-.794 9.027-2.577Zm-35.057 2.494c2.554-1.089 6.616-.132 8.614.608 1.626.602 3.22.864 4.712.864 3.69 0 6.75-1.623 8.07-3.825a.655.655 0 0 0-.224-.897.655.655 0 0 0-.897.224c-1.578 2.635-6.203 4.255-11.21 2.404-2.705-.998-6.837-1.75-9.58-.582a.654.654 0 1 0 .512 1.204h.003Zm6.046-13.967c.535.221.941.695 1.114 1.303.16.56.116 1.19-.124 1.774-.41.995-1.303 1.62-2.184 1.62a1.83 1.83 0 0 1-.685-.135c-1.066-.439-1.507-1.818-.992-3.076.519-1.258 1.805-1.924 2.871-1.486Zm-1.38 3.358c.391.16.926-.195 1.166-.778.128-.307.154-.643.077-.918-.039-.132-.135-.362-.359-.455a.539.539 0 0 0-.201-.038c-.359 0-.765.33-.964.816-.24.583-.112 1.21.282 1.373Zm-2.755-7.196a2.015 2.015 0 0 1 .09-1.309 2 2 0 0 1 .857-.992 1.51 1.51 0 0 1 1.316-.103c.813.333 1.159 1.37.771 2.308a2 2 0 0 1-.858.992 1.59 1.59 0 0 1-.774.209 1.41 1.41 0 0 1-.538-.106c-.416-.17-.73-.535-.861-.999h-.003Zm1.254-.358c.01.038.042.125.103.15.06.026.147-.016.18-.035a.703.703 0 0 0 .29-.352c.122-.298.045-.56-.06-.605-.013-.006-.03-.006-.045-.006a.333.333 0 0 0-.135.041.703.703 0 0 0-.291.352.712.712 0 0 0-.042.455Zm6.803 8.444c-.813-.332-1.16-1.37-.772-2.308a2 2 0 0 1 .858-.992 1.51 1.51 0 0 1 1.316-.102c.813.333 1.159 1.37.771 2.308-.304.74-.973 1.2-1.642 1.2a1.42 1.42 0 0 1-.535-.106h.004Zm.496-1.206c.105.041.346-.09.47-.388.122-.297.045-.56-.06-.605-.013-.006-.03-.006-.045-.006-.051 0-.11.029-.135.041a.703.703 0 0 0-.291.353c-.122.297-.045.56.06.605Zm3.537-12.059c-.528.314-.986.583-1.466.707a.653.653 0 0 0 .323 1.265c.66-.17 1.217-.5 1.806-.845 1.034-.612 2.208-1.303 4.356-1.303a.652.652 0 0 0 .653-.653.652.652 0 0 0-.653-.653c-2.503 0-3.899.823-5.02 1.485l.001-.003Zm35.183 23.643h-.003c-5.752.032-7.132.602-14.462 4.027-2.849 1.332-5.1.391-7.48-.605-2.466-1.03-5.01-2.096-8.167-.563-7.49 3.64-10.087 3.214-16.175.954-2.199-.816-5.813.17-8.456 1.14l-.113.041a.652.652 0 0 0 .122 1.28c.147.01.227-.019.435-.095 3.397-1.246 6.15-1.662 7.555-1.14 3.044 1.13 5.301 1.828 7.699 1.828 2.608 0 5.377-.83 9.504-2.833 2.628-1.277 4.795-.368 7.093.592 2.42 1.012 5.164 2.16 8.538.583 7.346-3.435 8.492-3.877 13.914-3.905a.654.654 0 0 0-.003-1.307v.003Z"/>
</svg>
