<svg xmlns="http://www.w3.org/2000/svg" width="54" height="53" fill="none" viewBox="0 0 54 53">
  <mask id="a" width="54" height="53" x="0" y=".107" fill="#000" maskUnits="userSpaceOnUse">
    <path fill="#fff" d="M0 .107h54v53H0z"/>
    <path d="M51.272 8.455c.38-.215.697-.52.93-.891.473-.748.525-1.69.133-2.486a7.152 7.152 0 0 0-1.35-1.913 6.95 6.95 0 0 0-4.966-2.058H36.7a10.936 10.936 0 0 0-9.563 5.584 10.92 10.92 0 0 0-9.562-5.56h-9.32A7.011 7.011 0 0 0 3.28 3.19a7.112 7.112 0 0 0-1.35 1.914 2.55 2.55 0 0 0 .134 2.486c.234.368.557.677.937.892A7.21 7.21 0 0 0 1 13.442v.345a2.6 2.6 0 0 0 2.594 2.593H8.63a.64.64 0 0 0 .337-.095l.153-.096 3.187-1.912-.096.172v.045a1.316 1.316 0 0 0 1.2 1.879h2.486a.616.616 0 0 0 .407-.076l.165-.103 3.186-1.913-.638 1.16.002.002a.757.757 0 0 0-.062.218.176.176 0 0 1 0 .05.826.826 0 0 0 0 .217c.017.046.036.091.058.134l.038.046.03.045v-.002a.728.728 0 0 0 .173.14h.045a4.4 4.4 0 0 0 4.01 6.133l-1.213 28.852a.639.639 0 1 0 1.277 0l.363-8.594h4.272l-.002.002a.638.638 0 1 0 0-1.276h-4.207l.39-9.257h3.365a.638.638 0 1 0 0-1.274H24.24l.345-8.632a4.403 4.403 0 0 0 2.55-1.956 4.403 4.403 0 0 0 2.551 1.956l.191 4.609h-1.862a.64.64 0 0 0-.638.638.64.64 0 0 0 .638.639h1.913l.325 7.776H28.62a.636.636 0 0 0 0 1.274h1.702l.6 14.146v.002a.637.637 0 0 0 1.274 0l-.638-14.714-.598-14.191a4.4 4.4 0 0 0 3.627-1.977 4.411 4.411 0 0 0 .397-4.112.627.627 0 0 0 .291-.249.63.63 0 0 0 0-.636l-.638-1.16 3.187 1.913.002-.002c.206.127.442.194.681.191h2.38a1.328 1.328 0 0 0 1.173-1.912l-.084-.153 3.187 1.912c.206.127.442.194.684.191h4.845-.002a2.597 2.597 0 0 0 2.582-2.644v-.351a7.224 7.224 0 0 0-2.002-4.98ZM36.699 2.407h9.32a5.73 5.73 0 0 1 5.169 3.232c.208.407.181.892-.07 1.274a1.31 1.31 0 0 1-.963.605 7.219 7.219 0 0 0-4.13-1.274H43.64l-.478-1.154a.642.642 0 0 0-.851-.385.64.64 0 0 0-.323.877l.275.638h-5.738l-.72-1.23a.635.635 0 0 0-.387-.345.634.634 0 0 0-.817.476.634.634 0 0 0 .107.504l.345.586h-1.275v.002a7.163 7.163 0 0 0-4.126 1.274 4.452 4.452 0 0 0-1.133-.554A9.638 9.638 0 0 1 36.7 2.407Zm-9.563 11.858a3.134 3.134 0 0 1-2.892-1.944 3.132 3.132 0 0 1 .686-3.416 3.136 3.136 0 1 1 2.206 5.36ZM3.077 5.639a5.734 5.734 0 0 1 5.176-3.232h9.32a9.64 9.64 0 0 1 8.205 4.526 4.49 4.49 0 0 0-1.135.554 7.156 7.156 0 0 0-4.124-1.274h-1.274l.344-.586v-.002a.644.644 0 0 0 .067-.483.65.65 0 0 0-.297-.39.638.638 0 0 0-.867.23l-.72 1.231h-5.737l.274-.638h-.002a.64.64 0 0 0 .031-.51.646.646 0 0 0-.354-.368.636.636 0 0 0-.849.387l-.477 1.155-2.41-.002a7.204 7.204 0 0 0-4.131 1.276 1.317 1.317 0 0 1-.97-.607 1.277 1.277 0 0 1-.07-1.267Zm10.251 9.422 1.021-1.913.134-.248a.796.796 0 0 0 .062-.199.428.428 0 0 0 0-.19.467.467 0 0 0-.043-.14v-.083a.54.54 0 0 0-.32-.26.595.595 0 0 0-.478 0h-.077l-.127.076-5.022 3.029H3.632v-.003a1.32 1.32 0 0 1-.968-.38 1.324 1.324 0 0 1-.39-.963v-.352a5.98 5.98 0 0 1 5.974-5.974h12.278a5.894 5.894 0 0 1 3.187.918 4.358 4.358 0 0 0-.968 2.75c0 .884.267 1.747.765 2.478h-.13c-.82 0-1.625.232-2.318.67l.753-1.423h-.003a.637.637 0 0 0-.126-.765.692.692 0 0 0-.345-.157.597.597 0 0 0-.428.08l-5.144 3.1h-2.396l-.045-.051Zm10.034 6.113a3.134 3.134 0 0 1-2.895-1.932 3.137 3.137 0 1 1 6.032-1.224 3.141 3.141 0 0 1-3.137 3.137v.019Zm7.547 0h.003a3.133 3.133 0 0 1-2.898-1.937 3.13 3.13 0 0 1 .68-3.416 3.134 3.134 0 0 1 3.418-.681 3.139 3.139 0 0 1 1.936 2.897 3.142 3.142 0 0 1-3.136 3.118l-.003.019ZM52 13.787c0 .729-.59 1.32-1.32 1.32h-4.87l-5.098-3.092-.003-.002a.637.637 0 0 0-.892.841l1.13 2.207-.046.07h-2.403l-5.1-3.092a.636.636 0 0 0-.899.841l.754 1.423h-.002a4.349 4.349 0 0 0-2.32-.67h-.128a4.417 4.417 0 0 0 .765-2.48c.002-1-.34-1.97-.968-2.747a5.874 5.874 0 0 1 3.186-.918h12.24A5.978 5.978 0 0 1 52 13.443v.344Z"/>
  </mask>
  <path fill="#000" d="M51.272 8.455c.38-.215.697-.52.93-.891.473-.748.525-1.69.133-2.486a7.152 7.152 0 0 0-1.35-1.913 6.95 6.95 0 0 0-4.966-2.058H36.7a10.936 10.936 0 0 0-9.563 5.584 10.92 10.92 0 0 0-9.562-5.56h-9.32A7.011 7.011 0 0 0 3.28 3.19a7.112 7.112 0 0 0-1.35 1.914 2.55 2.55 0 0 0 .134 2.486c.234.368.557.677.937.892A7.21 7.21 0 0 0 1 13.442v.345a2.6 2.6 0 0 0 2.594 2.593H8.63a.64.64 0 0 0 .337-.095l.153-.096 3.187-1.912-.096.172v.045a1.316 1.316 0 0 0 1.2 1.879h2.486a.616.616 0 0 0 .407-.076l.165-.103 3.186-1.913-.638 1.16.002.002a.757.757 0 0 0-.062.218.176.176 0 0 1 0 .05.826.826 0 0 0 0 .217c.017.046.036.091.058.134l.038.046.03.045v-.002a.728.728 0 0 0 .173.14h.045a4.4 4.4 0 0 0 4.01 6.133l-1.213 28.852a.639.639 0 1 0 1.277 0l.363-8.594h4.272l-.002.002a.638.638 0 1 0 0-1.276h-4.207l.39-9.257h3.365a.638.638 0 1 0 0-1.274H24.24l.345-8.632a4.403 4.403 0 0 0 2.55-1.956 4.403 4.403 0 0 0 2.551 1.956l.191 4.609h-1.862a.64.64 0 0 0-.638.638.64.64 0 0 0 .638.639h1.913l.325 7.776H28.62a.636.636 0 0 0 0 1.274h1.702l.6 14.146v.002a.637.637 0 0 0 1.274 0l-.638-14.714-.598-14.191a4.4 4.4 0 0 0 3.627-1.977 4.411 4.411 0 0 0 .397-4.112.627.627 0 0 0 .291-.249.63.63 0 0 0 0-.636l-.638-1.16 3.187 1.913.002-.002c.206.127.442.194.681.191h2.38a1.328 1.328 0 0 0 1.173-1.912l-.084-.153 3.187 1.912c.206.127.442.194.684.191h4.845-.002a2.597 2.597 0 0 0 2.582-2.644v-.351a7.224 7.224 0 0 0-2.002-4.98ZM36.699 2.407h9.32a5.73 5.73 0 0 1 5.169 3.232c.208.407.181.892-.07 1.274a1.31 1.31 0 0 1-.963.605 7.219 7.219 0 0 0-4.13-1.274H43.64l-.478-1.154a.642.642 0 0 0-.851-.385.64.64 0 0 0-.323.877l.275.638h-5.738l-.72-1.23a.635.635 0 0 0-.387-.345.634.634 0 0 0-.817.476.634.634 0 0 0 .107.504l.345.586h-1.275v.002a7.163 7.163 0 0 0-4.126 1.274 4.452 4.452 0 0 0-1.133-.554A9.638 9.638 0 0 1 36.7 2.407Zm-9.563 11.858a3.134 3.134 0 0 1-2.892-1.944 3.132 3.132 0 0 1 .686-3.416 3.136 3.136 0 1 1 2.206 5.36ZM3.077 5.639a5.734 5.734 0 0 1 5.176-3.232h9.32a9.64 9.64 0 0 1 8.205 4.526 4.49 4.49 0 0 0-1.135.554 7.156 7.156 0 0 0-4.124-1.274h-1.274l.344-.586v-.002a.644.644 0 0 0 .067-.483.65.65 0 0 0-.297-.39.638.638 0 0 0-.867.23l-.72 1.231h-5.737l.274-.638h-.002a.64.64 0 0 0 .031-.51.646.646 0 0 0-.354-.368.636.636 0 0 0-.849.387l-.477 1.155-2.41-.002a7.204 7.204 0 0 0-4.131 1.276 1.317 1.317 0 0 1-.97-.607 1.277 1.277 0 0 1-.07-1.267Zm10.251 9.422 1.021-1.913.134-.248a.796.796 0 0 0 .062-.199.428.428 0 0 0 0-.19.467.467 0 0 0-.043-.14v-.083a.54.54 0 0 0-.32-.26.595.595 0 0 0-.478 0h-.077l-.127.076-5.022 3.029H3.632v-.003a1.32 1.32 0 0 1-.968-.38 1.324 1.324 0 0 1-.39-.963v-.352a5.98 5.98 0 0 1 5.974-5.974h12.278a5.894 5.894 0 0 1 3.187.918 4.358 4.358 0 0 0-.968 2.75c0 .884.267 1.747.765 2.478h-.13c-.82 0-1.625.232-2.318.67l.753-1.423h-.003a.637.637 0 0 0-.126-.765.692.692 0 0 0-.345-.157.597.597 0 0 0-.428.08l-5.144 3.1h-2.396l-.045-.051Zm10.034 6.113a3.134 3.134 0 0 1-2.895-1.932 3.137 3.137 0 1 1 6.032-1.224 3.141 3.141 0 0 1-3.137 3.137v.019Zm7.547 0h.003a3.133 3.133 0 0 1-2.898-1.937 3.13 3.13 0 0 1 .68-3.416 3.134 3.134 0 0 1 3.418-.681 3.139 3.139 0 0 1 1.936 2.897 3.142 3.142 0 0 1-3.136 3.118l-.003.019ZM52 13.787c0 .729-.59 1.32-1.32 1.32h-4.87l-5.098-3.092-.003-.002a.637.637 0 0 0-.892.841l1.13 2.207-.046.07h-2.403l-5.1-3.092a.636.636 0 0 0-.899.841l.754 1.423h-.002a4.349 4.349 0 0 0-2.32-.67h-.128a4.417 4.417 0 0 0 .765-2.48c.002-1-.34-1.97-.968-2.747a5.874 5.874 0 0 1 3.186-.918h12.24A5.978 5.978 0 0 1 52 13.443v.344Z"/>
  <path stroke="#000" stroke-opacity=".96" stroke-width=".4" d="M51.272 8.455c.38-.215.697-.52.93-.891.473-.748.525-1.69.133-2.486a7.152 7.152 0 0 0-1.35-1.913 6.95 6.95 0 0 0-4.966-2.058H36.7a10.936 10.936 0 0 0-9.563 5.584 10.92 10.92 0 0 0-9.562-5.56h-9.32A7.011 7.011 0 0 0 3.28 3.19a7.112 7.112 0 0 0-1.35 1.914 2.55 2.55 0 0 0 .134 2.486c.234.368.557.677.937.892A7.21 7.21 0 0 0 1 13.442v.345a2.6 2.6 0 0 0 2.594 2.593H8.63a.64.64 0 0 0 .337-.095l.153-.096 3.187-1.912-.096.172v.045a1.316 1.316 0 0 0 1.2 1.879h2.486a.616.616 0 0 0 .407-.076l.165-.103 3.186-1.913-.638 1.16.002.002a.757.757 0 0 0-.062.218.176.176 0 0 1 0 .05.826.826 0 0 0 0 .217c.017.046.036.091.058.134l.038.046.03.045v-.002a.728.728 0 0 0 .173.14h.045a4.4 4.4 0 0 0 4.01 6.133l-1.213 28.852a.639.639 0 1 0 1.277 0l.363-8.594h4.272l-.002.002a.638.638 0 1 0 0-1.276h-4.207l.39-9.257h3.365a.638.638 0 1 0 0-1.274H24.24l.345-8.632a4.403 4.403 0 0 0 2.55-1.956 4.403 4.403 0 0 0 2.551 1.956l.191 4.609h-1.862a.64.64 0 0 0-.638.638.64.64 0 0 0 .638.639h1.913l.325 7.776H28.62a.636.636 0 0 0 0 1.274h1.702l.6 14.146v.002a.637.637 0 0 0 1.274 0l-.638-14.714-.598-14.191a4.4 4.4 0 0 0 3.627-1.977 4.411 4.411 0 0 0 .397-4.112.627.627 0 0 0 .291-.249.63.63 0 0 0 0-.636l-.638-1.16 3.187 1.913.002-.002c.206.127.442.194.681.191h2.38a1.328 1.328 0 0 0 1.173-1.912l-.084-.153 3.187 1.912c.206.127.442.194.684.191h4.845-.002a2.597 2.597 0 0 0 2.582-2.644v-.351a7.224 7.224 0 0 0-2.002-4.98ZM36.699 2.407h9.32a5.73 5.73 0 0 1 5.169 3.232c.208.407.181.892-.07 1.274a1.31 1.31 0 0 1-.963.605 7.219 7.219 0 0 0-4.13-1.274H43.64l-.478-1.154a.642.642 0 0 0-.851-.385.64.64 0 0 0-.323.877l.275.638h-5.738l-.72-1.23a.635.635 0 0 0-.387-.345.634.634 0 0 0-.817.476.634.634 0 0 0 .107.504l.345.586h-1.275v.002a7.163 7.163 0 0 0-4.126 1.274 4.452 4.452 0 0 0-1.133-.554A9.638 9.638 0 0 1 36.7 2.407Zm-9.563 11.858a3.134 3.134 0 0 1-2.892-1.944 3.132 3.132 0 0 1 .686-3.416 3.136 3.136 0 1 1 2.206 5.36ZM3.077 5.639a5.734 5.734 0 0 1 5.176-3.232h9.32a9.64 9.64 0 0 1 8.205 4.526 4.49 4.49 0 0 0-1.135.554 7.156 7.156 0 0 0-4.124-1.274h-1.274l.344-.586v-.002a.644.644 0 0 0 .067-.483.65.65 0 0 0-.297-.39.638.638 0 0 0-.867.23l-.72 1.231h-5.737l.274-.638h-.002a.64.64 0 0 0 .031-.51.646.646 0 0 0-.354-.368.636.636 0 0 0-.849.387l-.477 1.155-2.41-.002a7.204 7.204 0 0 0-4.131 1.276 1.317 1.317 0 0 1-.97-.607 1.277 1.277 0 0 1-.07-1.267Zm10.251 9.422 1.021-1.913.134-.248a.796.796 0 0 0 .062-.199.428.428 0 0 0 0-.19.467.467 0 0 0-.043-.14v-.083a.54.54 0 0 0-.32-.26.595.595 0 0 0-.478 0h-.077l-.127.076-5.022 3.029H3.632v-.003a1.32 1.32 0 0 1-.968-.38 1.324 1.324 0 0 1-.39-.963v-.352a5.98 5.98 0 0 1 5.974-5.974h12.278a5.894 5.894 0 0 1 3.187.918 4.358 4.358 0 0 0-.968 2.75c0 .884.267 1.747.765 2.478h-.13c-.82 0-1.625.232-2.318.67l.753-1.423h-.003a.637.637 0 0 0-.126-.765.692.692 0 0 0-.345-.157.597.597 0 0 0-.428.08l-5.144 3.1h-2.396l-.045-.051Zm10.034 6.113a3.134 3.134 0 0 1-2.895-1.932 3.137 3.137 0 1 1 6.032-1.224 3.141 3.141 0 0 1-3.137 3.137v.019Zm7.547 0h.003a3.133 3.133 0 0 1-2.898-1.937 3.13 3.13 0 0 1 .68-3.416 3.134 3.134 0 0 1 3.418-.681 3.139 3.139 0 0 1 1.936 2.897 3.142 3.142 0 0 1-3.136 3.118l-.003.019ZM52 13.787c0 .729-.59 1.32-1.32 1.32h-4.87l-5.098-3.092-.003-.002a.637.637 0 0 0-.892.841l1.13 2.207-.046.07h-2.403l-5.1-3.092a.636.636 0 0 0-.899.841l.754 1.423h-.002a4.349 4.349 0 0 0-2.32-.67h-.128a4.417 4.417 0 0 0 .765-2.48c.002-1-.34-1.97-.968-2.747a5.874 5.874 0 0 1 3.186-.918h12.24A5.978 5.978 0 0 1 52 13.443v.344Z" mask="url(#a)"/>
</svg>
