<svg xmlns="http://www.w3.org/2000/svg" width="77" height="22" fill="none" viewBox="0 0 77 22">
  <path fill="#000" d="M2.766 16.117H.606V.661h2.16v15.456ZM12.222.71c-1.8 1.464-3.504 3.048-5.472 4.92L5.214 7.093l6.384 9.024H8.742l-5.304-7.92 3.048-2.88c2.28-2.16 3.744-3.528 4.92-4.656h.816V.71Zm10.523 13.392h.288s-.432 1.296-1.296 1.824v.024h-.024c-.192.12-.408.216-.672.216h-.24c-.768-.072-1.008-.672-1.056-1.08 0-.144-.024-.36-.024-.528 0-.024-.024-.048-.024-.072v-2.472c-.12.456-.264.936-.48 1.392-.864 1.896-2.16 2.856-3.864 2.88-.024.024-.048.024-.048.024-.888 0-1.68-.288-2.208-.816a2.465 2.465 0 0 1-.72-1.776c0-1.704 1.8-3.168 5.664-4.68l1.848-.744c-.12-2.952-.96-3.528-2.376-3.528-.576 0-1.056.144-1.464.456 0 0-.192.144-.312.648-.192.888-1.32 1.176-1.92.504l-.36-.408c.888-.552 2.808-1.536 4.416-1.536 1.752 0 3.864.72 3.864 4.176v5.952c.144 1.104 1.008-.456 1.008-.456Zm-3.408-1.944c.432-1.416.552-2.976.576-3.528l-1.776.744c-3.336 1.416-4.08 2.064-4.08 3.696 0 1.176 1.056 2.112 2.4 2.112 1.296 0 2.256-1.008 2.88-3.024Zm23.847 1.944h.312s-.433 1.296-1.297 1.824l-.023.024h-.025c-.168.12-.36.192-.576.216h-.36a1.26 1.26 0 0 1-.48-.144 1.21 1.21 0 0 1-.527-.84c0-.024-.024-.024-.024-.024v-.072c-.024-.12-.024-.24-.024-.312V8.605c0-.864 0-3.408-2.472-3.408-1.129 0-2.113.696-3.265 1.896.12.456.169.96.169 1.56v7.296h-2.017V8.605c0-.864-.024-3.408-2.472-3.408-1.104 0-2.016.648-3.072 1.68v9.072h-2.015V6.253c-.144-1.104-1.008.456-1.008.456h-.288s.408-1.296 1.296-1.848h.024c.192-.12.408-.216.672-.216h.24c.215.024.383.072.503.144h.025c.335.216.48.552.527.84v.024c.024.12.024.24.024.384v.456c1.152-1.152 2.28-1.848 3.985-1.848 1.68 0 2.784.672 3.312 2.064 1.247-1.272 2.423-2.064 4.247-2.064 2.328 0 3.576 1.272 3.576 4.008v5.76a.304.304 0 0 1 .024.144c.145 1.104 1.009-.456 1.009-.456Zm11.413 0h.288s-.432 1.296-1.296 1.824v.024h-.024c-.192.12-.408.216-.672.216h-.24c-.768-.072-1.008-.672-1.056-1.08 0-.144-.025-.36-.025-.528 0-.024-.024-.048-.024-.072v-2.472c-.12.456-.264.936-.48 1.392-.863 1.896-2.16 2.856-3.863 2.88-.024.024-.048.024-.048.024-.888 0-1.68-.288-2.208-.816a2.465 2.465 0 0 1-.72-1.776c0-1.704 1.8-3.168 5.663-4.68l1.848-.744c-.12-2.952-.96-3.528-2.376-3.528-.575 0-1.055.144-1.463.456 0 0-.193.144-.313.648-.191.888-1.32 1.176-1.92.504l-.36-.408c.889-.552 2.809-1.536 4.416-1.536 1.753 0 3.865.72 3.865 4.176v5.952c.144 1.104 1.008-.456 1.008-.456Zm-3.409-1.944c.432-1.416.552-2.976.576-3.528l-1.776.744c-3.335 1.416-4.08 2.064-4.08 3.696 0 1.176 1.056 2.112 2.4 2.112 1.297 0 2.257-1.008 2.88-3.024Zm13.926-7.512h.552c-.912 1.824-1.632 3.504-2.88 6.384l-.48 1.104-2.736 6.624c-1.032 2.424-2.664 3.168-4.56 3.168l.024-.456a1.392 1.392 0 0 1 1.584-1.296c1.896.288 2.544-1.44 2.544-1.44l.696-1.704.432-1.032-4.008-9.312-.024-.048-.072-.144-.048-.144-.048-.12-.024-.048c-.456-.96-1.08.528-1.08.528h-.288s.312-.936.936-1.536c.096-.12.216-.216.336-.288h.024c.216-.144.432-.216.672-.24h.264c.48.048.744.312.888.624h.024l3.48 8.16.6-1.368.096-.216.408-.96c.12-.24.216-.48.312-.72v-.048l2.376-5.472Zm10.834 9.456h.288s-.432 1.296-1.296 1.824v.024h-.024c-.192.12-.408.216-.672.216h-.24c-.768-.072-1.008-.672-1.056-1.08 0-.144-.024-.36-.024-.528 0-.024-.024-.048-.024-.072v-2.472c-.12.456-.264.936-.48 1.392-.864 1.896-2.16 2.856-3.864 2.88-.024.024-.048.024-.048.024-.888 0-1.68-.288-2.208-.816a2.465 2.465 0 0 1-.72-1.776c0-1.704 1.8-3.168 5.664-4.68l1.848-.744c-.12-2.952-.96-3.528-2.376-3.528-.576 0-1.056.144-1.464.456 0 0-.192.144-.312.648-.192.888-1.32 1.176-1.92.504l-.36-.408c.888-.552 2.808-1.536 4.416-1.536 1.752 0 3.864.72 3.864 4.176v5.952c.144 1.104 1.008-.456 1.008-.456Zm-3.408-1.944c.432-1.416.552-2.976.576-3.528l-1.776.744c-3.336 1.416-4.08 2.064-4.08 3.696 0 1.176 1.056 2.112 2.4 2.112 1.296 0 2.256-1.008 2.88-3.024Z"/>
</svg>
