<svg xmlns="http://www.w3.org/2000/svg" width="84" height="38" fill="none" viewBox="0 0 84 38">
  <path fill="#EAE8DB" d="M11.904 31.271H.214c-.025-.397-.07-.764-.07-1.128-.002-7.958.01-15.916-.021-23.876 0-.698.197-1.13.821-1.391.115-.047.217-.126.326-.192 2.01-1.23 3.888-2.933 6.07-3.551 2.152-.611 4.614-.12 6.94-.12h69.353c0 2.538-.02 5.008.003 7.475.054 5.786.136 11.57.18 17.356 0 .235-.202.57-.41.698a631.531 631.531 0 0 1-7.245 4.417 1.454 1.454 0 0 1-.695.22c-3.617.01-7.234.002-10.85-.006-.088 0-.176-.047-.327-.09V5.165h1.14c3.271 0 6.543.017 9.812-.016.474-.006 1-.143 1.405-.38 1.695-.998 3.354-2.055 5.27-3.238-.547-.024-.813-.046-1.078-.046-24.187 0-48.377-.006-72.564.016-.529 0-1.117.173-1.574.438-1.706.992-3.37 2.057-5.252 3.218.485.033.745.068 1.005.068 2.861.003 5.725.028 8.586-.013.759-.011.961.235.961.966-.022 8.054-.014 16.105-.016 24.158 0 .302-.05.606-.077.934h-.003Zm64.115-.8c2.275-1.382 4.375-2.691 6.513-3.932.63-.364.846-.772.835-1.495-.096-6.881-.156-13.763-.224-20.645-.008-.947 0-1.894 0-3.034-2.322 1.427-4.37 2.709-6.448 3.94-.534.319-.69.683-.687 1.282.022 6.099.013 12.197.013 18.298v5.587h-.002Zm-1.81-24.768v24.928h1.278V5.703H74.21Zm-4.38 24.95V5.7h-1.29v24.952h1.29ZM66.648 5.7v24.952h1.29V5.7h-1.29Zm-1.886 0v24.952h1.29V5.7h-1.29Zm8.748 24.95V5.703h-1.197V30.65h1.197ZM70.428 5.703V30.65h1.196V5.703h-1.196Zm-60.218.126v24.848h1.177V5.829H10.21ZM1.955 30.707V5.854H.766v24.853h1.189Zm1.878.003V5.862H2.66V30.71h1.172Zm1.89.003V5.862H4.547v24.85h1.174Zm1.872-.025V5.851H6.42v24.834h1.175v.003Zm.72-24.856v24.845h1.158V5.832H8.315Z"/>
  <path fill="#ECE8DB" d="M27.79 15.265h.133l-.007.79h-2.513v-4.507h.63v4.396h.357c.532 0 1.162-.042 1.4-.68Zm2.024-2.541c.938 0 1.63.65 1.63 1.7 0 1.05-.72 1.737-1.686 1.737-.938 0-1.638-.644-1.638-1.694 0-1.05.728-1.743 1.694-1.743Zm-.021 3.353c.623 0 1.022-.637 1.022-1.61 0-.994-.427-1.652-1.036-1.652-.623 0-1.022.637-1.022 1.61 0 .994.427 1.652 1.036 1.652Zm4.986-.61h.084s-.126.379-.378.533v.007h-.007a.363.363 0 0 1-.196.063h-.07c-.224-.021-.294-.196-.308-.315 0-.042-.007-.105-.007-.154 0-.007-.007-.014-.007-.021v-.721a2.327 2.327 0 0 1-.14.406c-.252.553-.63.833-1.127.84-.007.007-.014.007-.014.007-.259 0-.49-.084-.644-.238a.719.719 0 0 1-.21-.518c0-.497.525-.924 1.652-1.365l.54-.217c-.036-.861-.28-1.03-.694-1.03a.676.676 0 0 0-.427.134s-.056.042-.09.189a.326.326 0 0 1-.56.147l-.106-.12c.26-.16.82-.447 1.288-.447.511 0 1.127.21 1.127 1.218V15.6c.042.322.294-.133.294-.133Zm-.994-.566c.126-.413.161-.868.168-1.03l-.518.218c-.973.413-1.19.602-1.19 1.078 0 .343.308.616.7.616.378 0 .658-.294.84-.882Zm4.703.567h.09s-.126.378-.378.532l-.007.007a.405.405 0 0 1-.195.063h-.078a.324.324 0 0 1-.3-.315 1.257 1.257 0 0 1-.014-.154c-.302.322-.672.51-1.1.51-.804 0-1.407-.685-1.407-1.658 0-1.057.729-1.778 1.597-1.778.357 0 .665.126.91.343v-1.435c-.022-.175-.099-.252-.343-.301v-.084l.343-.07.58-.112h.008v4.48c0 .042 0 .07.006.105.042.322.287-.133.287-.133Zm-.883-.021V13.41c-.153-.378-.475-.63-.853-.63-.61 0-1.023.616-1.023 1.61 0 1.015.407 1.519.974 1.519.307 0 .63-.154.902-.462Zm1.872-3.374a.296.296 0 0 1-.301-.301c0-.077.028-.147.084-.21a.313.313 0 0 1 .427 0 .309.309 0 0 1 .084.21.296.296 0 0 1-.294.3Zm.588 3.395h.084s-.126.378-.378.532a.415.415 0 0 1-.203.07h-.07c-.224-.021-.294-.196-.308-.315-.007-.035-.007-.07-.007-.091v-2.387c-.007-.49-.294.042-.294.042h-.084s.126-.385.378-.54a.408.408 0 0 1 .203-.062h.099c.23.042.272.252.28.37.006.043 0 .078 0 .078v2.324c0 .042.006.077.006.105.042.329.294-.126.294-.126Zm3.79-.007h.083s-.119.378-.378.539h-.007v.007a.513.513 0 0 1-.175.056l-.02.007h-.029c-.014 0-.035 0-.049-.007h-.007a.367.367 0 0 1-.14-.042.327.327 0 0 1-.154-.245s-.007 0-.007-.007v-.021c-.007-.035-.007-.063-.007-.084v-1.8c0-.251 0-1-.72-1-.316 0-.589.196-.897.497v2.646h-.588v-2.828c-.042-.322-.294.133-.294.133h-.084s.12-.378.378-.54a.408.408 0 0 1 .203-.062h.071a.368.368 0 0 1 .146.042c.098.063.14.16.154.245l.007.007v.021c0 .014.007.035.007.049v.175c.336-.336.665-.54 1.155-.54s.82.197.966.603l.035.112c.028.133.05.28.05.455v1.68c0 .014 0 .02.006.035.035.329.294-.133.294-.133Zm2.975-2.52a.59.59 0 0 0-.308.07c-.014.007-.014.02-.008.028.224.196.357.483.357.812 0 .672-.567 1.14-1.323 1.14-.203 0-.392-.034-.567-.097-.007-.007-.014-.007-.014 0l-.133.084c-.14.098-.175.189-.175.28 0 .133.099.224.434.238l1.022.063c.694.042 1.078.308 1.078.819 0 .679-.622 1.183-1.588 1.183-.791 0-1.33-.343-1.33-.89v-.027c0-.042.007-.091.014-.14.006 0 .006-.007.006-.007a.336.336 0 0 1 .148-.21.278.278 0 0 1 .14-.05h.182c.007 0 .014.008.027.008a1.086 1.086 0 0 0-.063.51c.063.428.28.722.876.722.812 0 1.106-.35 1.106-.861 0-.336-.161-.525-.707-.56l-.973-.063c-.434-.021-.728-.182-.728-.504 0-.238.154-.4.44-.574l.127-.07c-.378-.19-.623-.54-.623-.987 0-.672.566-1.141 1.322-1.141.322 0 .61.077.834.23.007.008.02.008.02 0 .161-.223.407-.426.798-.433.015 0 .022.014.022.02l-.008.043a.404.404 0 0 1-.405.364Zm-1.267 1.953c.475 0 .755-.413.755-1.036 0-.616-.3-1.043-.762-1.043-.47 0-.756.42-.756 1.036 0 .623.3 1.043.763 1.043Zm-18.99 3.654c1.154 0 1.742.448 1.742 1.239 0 .847-.665 1.386-1.743 1.386a3.86 3.86 0 0 1-.539-.035v1.918h-.63v-4.508h1.17Zm-.106 2.527c.784 0 1.183-.455 1.183-1.211 0-.714-.364-1.211-1.176-1.211h-.44v2.38c.111.028.251.042.433.042Zm4.956 1.393h.084s-.126.378-.378.532v.007h-.007a.363.363 0 0 1-.196.063h-.071c-.223-.021-.293-.196-.307-.315 0-.042-.007-.105-.007-.154 0-.007-.007-.014-.007-.021v-.721a2.327 2.327 0 0 1-.14.406c-.252.553-.63.833-1.127.84-.007.007-.014.007-.014.007-.26 0-.49-.084-.644-.238a.719.719 0 0 1-.21-.518c0-.497.525-.924 1.652-1.365l.539-.217c-.035-.861-.28-1.03-.693-1.03a.676.676 0 0 0-.427.134s-.056.042-.091.189a.326.326 0 0 1-.56.147l-.105-.12c.259-.16.819-.447 1.288-.447.51 0 1.127.21 1.127 1.218V22.6c.042.322.294-.133.294-.133Zm-.994-.567c.126-.413.16-.868.168-1.03l-.518.218c-.973.413-1.19.602-1.19 1.078 0 .343.308.616.7.616.378 0 .658-.294.84-.882Zm3.136-2.121c.112 0 .217.02.294.035l-.021.063a.511.511 0 0 1-.49.322h-.007c-.385.007-.441.126-.602.308-.014.014-.021.028-.035.042-.021.028-.05.07-.07.105-.014.014-.021.035-.035.056-.007.02-.021.035-.028.056v2.303h-.588v-2.751c0-.028 0-.05-.007-.07-.042-.33-.287.126-.287.126h-.084s.119-.371.37-.532h.008v-.007a.43.43 0 0 1 .203-.063h.042c.238.007.308.182.329.308v.51c.23-.503.574-.811 1.008-.811Zm3.327 2.688h.084s-.126.378-.378.532v.007h-.007a.363.363 0 0 1-.196.063h-.071c-.223-.021-.293-.196-.307-.315 0-.042-.007-.105-.007-.154 0-.007-.007-.014-.007-.021v-.721a2.327 2.327 0 0 1-.14.406c-.252.553-.63.833-1.127.84-.007.007-.014.007-.014.007-.26 0-.49-.084-.644-.238a.719.719 0 0 1-.21-.518c0-.497.525-.924 1.652-1.365l.539-.217c-.035-.861-.28-1.03-.693-1.03a.676.676 0 0 0-.427.134s-.056.042-.091.189a.326.326 0 0 1-.56.147l-.105-.12c.259-.16.819-.447 1.288-.447.51 0 1.127.21 1.127 1.218V22.6c.042.322.294-.133.294-.133Zm-.994-.567c.126-.413.16-.868.168-1.03l-.518.218c-.973.413-1.19.602-1.19 1.078 0 .343.308.616.7.616.378 0 .658-.294.84-.882Zm4.702.567h.09s-.125.378-.377.532l-.007.007a.405.405 0 0 1-.196.063h-.078c-.216-.021-.293-.196-.3-.315a1.257 1.257 0 0 1-.014-.154c-.301.322-.672.51-1.1.51-.804 0-1.406-.685-1.406-1.658 0-1.057.728-1.778 1.596-1.778.357 0 .665.126.91.343v-1.435c-.021-.175-.098-.252-.343-.301v-.084l.343-.07.58-.112h.008v4.48c0 .042 0 .07.007.105.042.322.287-.133.287-.133Zm-.882-.021V20.41c-.154-.378-.476-.63-.854-.63-.61 0-1.022.616-1.022 1.61 0 1.015.406 1.519.973 1.519.308 0 .63-.154.903-.462Zm1.872-3.374a.296.296 0 0 1-.301-.301c0-.077.028-.147.084-.21a.313.313 0 0 1 .427 0 .309.309 0 0 1 .084.21.296.296 0 0 1-.294.3Zm.588 3.395h.084s-.126.378-.378.532a.415.415 0 0 1-.203.07h-.07c-.224-.021-.294-.196-.308-.315-.007-.035-.007-.07-.007-.091v-2.387c-.007-.49-.294.042-.294.042h-.084s.126-.385.378-.54a.408.408 0 0 1 .203-.062h.098c.23.042.273.252.28.37.007.043 0 .078 0 .078v2.324c0 .042.007.077.007.105.042.329.294-.126.294-.126Zm1.924-1.31c.392.162.952.393.952 1.009 0 .56-.469.98-1.26.98-.42 0-.896-.12-1.169-.301.021-.364.504-.497.714-.19.154.232.33.4.518.4.483 0 .805-.26.805-.63 0-.392-.378-.553-.77-.714l-.252-.105c-.406-.175-.959-.406-.959-.994 0-.518.448-.903 1.155-.903.441 0 .854.133 1.071.259-.028.336-.462.462-.658.182-.147-.203-.3-.357-.469-.357-.455 0-.7.259-.7.567 0 .385.427.546.777.693l.245.105Zm4.61.568.05.02c-.21.428-.505.834-.876 1.1-.28.196-.588.315-.945.315-.952 0-1.56-.68-1.56-1.596 0-.994.867-1.855 1.728-1.855.42 0 .694.133.861.3v-.006s.33.294.26.86h-2.22c-.043.155-.05.274-.043.456 0 .952.448 1.456 1.295 1.456.68 0 1.12-.4 1.45-1.05Zm-1.582-1.911c-.538 0-.826.3-1.099.945h1.674c.07-.476-.084-.721-.218-.826l-.014-.014a.691.691 0 0 0-.105-.063c-.02-.014-.041-.014-.041-.014a.552.552 0 0 0-.197-.028Zm2.138 2.68a.317.317 0 0 1 0 .442.308.308 0 0 1-.434 0 .31.31 0 0 1-.007-.441.317.317 0 0 1 .44 0Zm.86 0a.317.317 0 0 1 0 .442.308.308 0 0 1-.433 0 .31.31 0 0 1-.007-.441.317.317 0 0 1 .44 0Zm.862 0a.317.317 0 0 1 0 .442.308.308 0 0 1-.434 0 .31.31 0 0 1-.007-.441.317.317 0 0 1 .441 0Z"/>
</svg>
