<svg xmlns="http://www.w3.org/2000/svg" width="64" height="51" fill="none" viewBox="0 0 64 51">
  <path fill="#000" d="M63.968 47.533 58.244 9.519a2.98 2.98 0 0 0-2.967-2.554H49v-2a4 4 0 1 0-8 0v6h-8v-6a2 2 0 1 1 4 0 1 1 0 0 0 2 0 4 4 0 1 0-8 0v2H8.72a2.982 2.982 0 0 0-2.966 2.553L.03 47.54A3 3 0 0 0 3 50.965h58a2.999 2.999 0 0 0 2.968-3.432ZM45 2.965a2 2 0 0 1 2 2v2h-4v-2a2 2 0 0 1 2-2ZM61.754 48.62a.987.987 0 0 1-.755.345H3a1 1 0 0 1-.99-1.134L7.73 9.816a1 1 0 0 1 .99-.851h22.278v9a1 1 0 0 0 2 0v-5h8v5a1 1 0 0 0 2 0v-9h12.278a.993.993 0 0 1 .99.85l5.721 38.008a.985.985 0 0 1-.234.797Z"/>
  <path fill="#000" d="M16.563 16.619A1.922 1.922 0 0 1 18 15.943a1.927 1.927 0 0 1 1.44.68 3.928 3.928 0 0 0 2.93 1.342 3.826 3.826 0 0 0 2.2-.7 1 1 0 1 0-1.147-1.638 1.858 1.858 0 0 1-2.5-.338A3.9 3.9 0 0 0 18 13.943a3.9 3.9 0 0 0-2.926 1.343 1.854 1.854 0 0 1-2.5.33 1 1 0 0 0-1.148 1.638 3.85 3.85 0 0 0 5.138-.635Zm6.01 7.997a1 1 0 1 0-1.148 1.638 3.852 3.852 0 0 0 5.138-.635A1.924 1.924 0 0 1 28 24.943a1.927 1.927 0 0 1 1.44.68 3.927 3.927 0 0 0 2.93 1.342 3.825 3.825 0 0 0 2.2-.7 1 1 0 0 0-1.147-1.638 1.859 1.859 0 0 1-2.5-.338A3.9 3.9 0 0 0 28 22.943a3.899 3.899 0 0 0-2.926 1.343 1.854 1.854 0 0 1-2.5.33Zm24.99 1.003A1.924 1.924 0 0 1 49 24.943a1.924 1.924 0 0 1 1.44.682 3.93 3.93 0 0 0 2.93 1.34 3.826 3.826 0 0 0 2.2-.7 1 1 0 0 0-1.147-1.638 1.859 1.859 0 0 1-2.5-.338A3.9 3.9 0 0 0 49 22.943a3.9 3.9 0 0 0-2.924 1.342 1.856 1.856 0 0 1-2.5.33 1 1 0 1 0-1.148 1.639 3.852 3.852 0 0 0 5.136-.635Zm-25.991 9.64a1 1 0 1 0-1.146-1.638 1.858 1.858 0 0 1-2.5-.338A3.899 3.899 0 0 0 15 31.943a3.899 3.899 0 0 0-2.926 1.343 1.853 1.853 0 0 1-2.5.33 1 1 0 1 0-1.148 1.638 3.852 3.852 0 0 0 5.138-.635A1.924 1.924 0 0 1 15 33.943a1.927 1.927 0 0 1 1.44.68 3.927 3.927 0 0 0 2.93 1.342 3.828 3.828 0 0 0 2.203-.706Zm22.246-1.394a1 1 0 0 0-1.392-.246 1.86 1.86 0 0 1-2.5-.338A3.899 3.899 0 0 0 37 31.943a3.9 3.9 0 0 0-2.924 1.342 1.853 1.853 0 0 1-2.5.33 1 1 0 1 0-1.148 1.639 3.852 3.852 0 0 0 5.138-.635A1.925 1.925 0 0 1 37 33.943a1.924 1.924 0 0 1 1.44.682 3.93 3.93 0 0 0 2.93 1.34 3.826 3.826 0 0 0 2.2-.7 1.001 1.001 0 0 0 .25-1.4Zm11.608 8.755a1.859 1.859 0 0 1-2.5-.337A3.899 3.899 0 0 0 50 40.943a3.9 3.9 0 0 0-2.924 1.342 1.857 1.857 0 0 1-2.5.33 1 1 0 1 0-1.148 1.639 3.852 3.852 0 0 0 5.138-.635A1.925 1.925 0 0 1 50 42.943a1.924 1.924 0 0 1 1.44.682 3.93 3.93 0 0 0 2.93 1.34 3.826 3.826 0 0 0 2.2-.7 1 1 0 0 0-1.147-1.638l.004-.006Zm-24 0a1.86 1.86 0 0 1-2.5-.337A3.9 3.9 0 0 0 26 40.943a3.899 3.899 0 0 0-2.926 1.343 1.853 1.853 0 0 1-2.5.33 1 1 0 1 0-1.148 1.638 3.852 3.852 0 0 0 5.138-.635A1.923 1.923 0 0 1 26 42.943a1.927 1.927 0 0 1 1.44.68 3.927 3.927 0 0 0 2.93 1.342 3.827 3.827 0 0 0 2.2-.7 1 1 0 0 0-1.147-1.638l.004-.006Z"/>
</svg>
